<?xml version="1.0" encoding="utf-8"?>
<!-- Generator: Adobe Illustrator 26.4.0, SVG Export Plug-In . SVG Version: 6.00 Build 0)  -->
<svg version="1.1" id="Laag_1" xmlns="http://www.w3.org/2000/svg" xmlns:xlink="http://www.w3.org/1999/xlink" x="0px" y="0px"
	 viewBox="0 0 283.46 283.46" style="enable-background:new 0 0 283.46 283.46;" xml:space="preserve">
<style type="text/css">
	.st0{fill:#FFFFFF;stroke:#FFFFFF;stroke-width:0.789;stroke-miterlimit:10;}
</style>
<path class="st0" d="M141.65,153.3c18.94,0.04,34.04-15.09,34.1-33.83c0.07-18.76-15.07-34.07-34.05-34.01
	c-18.57,0.05-33.71,15.13-33.77,33.8C107.86,138.06,123.1,153.2,141.65,153.3z M199.27,201.75c-0.36-1.54-0.71-2.93-1.02-4.33
	c-0.77-3.52-2.03-6.87-3.52-10.13c-1.87-4.08-4.24-7.87-7-11.43c-2.88-3.71-6.18-7.02-9.85-9.92c-3.99-3.17-8.36-5.73-13.02-7.8
	c-1.1-0.49-1.97-0.6-3.09,0.02c-3.17,1.77-6.59,2.92-10.14,3.73c-2.83,0.65-5.68,1.08-8.58,1.11c-1.91,0.02-3.82-0.04-5.71-0.29
	c-2.53-0.34-5.12-0.65-7.54-1.41c-2.97-0.93-5.79-2.33-8.69-3.49c-0.36-0.14-0.87-0.21-1.19-0.06c-2.3,1.06-4.63,2.09-6.85,3.31
	c-4.37,2.38-8.26,5.41-11.82,8.87c-4.21,4.08-7.79,8.68-10.5,13.88c-1.41,2.71-2.59,5.55-3.7,8.4c-0.76,1.92-1.28,3.93-1.82,5.92
	c-0.31,1.16-0.46,2.36-0.71,3.61H199.27z M172.16,150.76c14.48,7.5,25.14,18.51,31.78,33.3c3.9,8.68,5.78,17.81,5.79,27.39H73.93
	c0.11-12.86,3.41-24.76,10.19-35.66c6.76-10.85,15.91-19.11,27.36-25c-9.77-9.87-14.33-21.72-13.13-35.43
	c1.05-11.88,6.32-21.88,15.55-29.52c17.37-14.4,41.88-12.96,57.39,1.37c5.92,5.48,10.1,12.02,12.38,19.75
	c2.3,7.79,2.43,15.64,0.36,23.52C182,138.29,177.99,144.95,172.16,150.76z"/>
</svg>
