<?xml version="1.0" encoding="UTF-8"?>
<svg id="Laag_1" data-name="Laag 1" xmlns="http://www.w3.org/2000/svg" xmlns:xlink="http://www.w3.org/1999/xlink" viewBox="0 0 168.14 127.81">
  <defs>
    <style>
      .cls-1 {
        fill: none;
      }

      .cls-2 {
        clip-path: url(#clippath);
      }

      .cls-3 {
        fill: #2e2a74;
      }
    </style>
    <clipPath id="clippath">
      <rect class="cls-1" y="0" width="168.13" height="127.81"/>
    </clipPath>
  </defs>
  <g class="cls-2">
    <path class="cls-3" d="m0,64.33c.85-4.5,3.81-7.35,7.03-10.08,12.52-10.63,24.97-21.35,37.45-32.03,7.43-6.35,14.83-12.77,22.3-19.06,4.12-3.47,8.78-4.17,13.52-1.65,4.9,2.61,7.25,7,6.9,12.77-.23,3.79-1.97,6.85-4.78,9.25-10.73,9.19-21.47,18.37-32.19,27.55-.17.15-.32.32-.7.67h1.61c73.35,0,30.05.02,103.4,0,3.49,0,6.66.89,9.34,3.34,3.78,3.43,5.25,9.22,3.55,14.1-1.83,5.25-6.37,8.73-11.49,8.73-16.5.03-32.99.02-49.49.02-57.57,0,1.55,0-56.02,0h-1.62c2.05,1.55,3.82,2.91,5.61,4.25,9.67,7.28,19.33,14.52,28.99,21.8,4.32,3.26,6.2,8.51,5,13.81-1.15,5.15-5.11,9.04-10.26,9.87-2.93.47-5.82,0-8.29-1.79-5.12-3.71-10.16-7.53-15.22-11.34-16.04-12.05-32.07-24.17-48.15-36.16-3.21-2.41-5.53-5.34-6.49-9.37v-4.65Z"/>
  </g>
</svg>