<?xml version="1.0" encoding="utf-8"?>
<!-- Generator: Adobe Illustrator 26.4.0, SVG Export Plug-In . SVG Version: 6.00 Build 0)  -->
<svg version="1.1" id="Laag_2" xmlns="http://www.w3.org/2000/svg" xmlns:xlink="http://www.w3.org/1999/xlink" x="0px" y="0px"
	 viewBox="0 0 283.46 283.46" style="enable-background:new 0 0 283.46 283.46;" xml:space="preserve">
<style type="text/css">
	.st0{fill:#F7F6F7;}
	.st1{fill:#B52020;}
	.st2{fill:#303F53;}
</style>
<path class="st0" d="M71.37,241.79h140.72c8.63,0,15.62-6.99,15.62-15.62V215.1v-22.09v-64.79H55.75v64.79v22.09v11.07
	C55.75,234.79,62.75,241.79,71.37,241.79z"/>
<path class="st1" d="M212.09,63.54H71.37c-8.63,0-15.62,6.99-15.62,15.62v11.07v22.09v15.91h171.95v-15.91V90.22V79.16
	C227.71,70.53,220.72,63.54,212.09,63.54z"/>
<circle class="st0" cx="96.24" cy="77.27" r="9.55"/>
<circle class="st0" cx="187.63" cy="77.27" r="9.55"/>
<path class="st2" d="M96.66,84.34L96.66,84.34c-3.93,0-7.12-3.19-7.12-7.12V48.8c0-3.93,3.19-7.12,7.12-7.12h0
	c3.93,0,7.12,3.19,7.12,7.12v28.41C103.78,81.15,100.59,84.34,96.66,84.34z"/>
<path class="st2" d="M187.63,84.34L187.63,84.34c-3.93,0-7.12-3.19-7.12-7.12V48.8c0-3.93,3.19-7.12,7.12-7.12h0
	c3.93,0,7.12,3.19,7.12,7.12v28.41C194.75,81.15,191.56,84.34,187.63,84.34z"/>
</svg>
