<?xml version="1.0" encoding="utf-8"?>
<!-- Generator: Adobe Illustrator 26.4.0, SVG Export Plug-In . SVG Version: 6.00 Build 0)  -->
<svg version="1.1" id="Laag_1" xmlns="http://www.w3.org/2000/svg" xmlns:xlink="http://www.w3.org/1999/xlink" x="0px" y="0px"
	 viewBox="0 0 425.2 283.46" style="enable-background:new 0 0 425.2 283.46;" xml:space="preserve">
<style type="text/css">
	.st0{fill:#75A1D6;}
	.st1{fill:#5379BC;}
	.st2{fill:#2E2C7E;}
	.st3{fill:#B52020;}
	.st4{fill:#FCD6B6;}
	.st5{fill:none;stroke:#2E2C7E;stroke-miterlimit:10;}
	.st6{fill:#7D5D51;}
	.st7{fill:#FFFFFF;}
	.st8{fill:none;stroke:#B2B2B2;stroke-miterlimit:10;}
</style>
<path d="M312.41,232.55c0,0,1.87,4.15,0.26,4.2c-1.6,0.05-3.89,4.96-0.01,8.58l17.3-5.62c0,0,4.31-2.61,4.54-4.55
	c0.23-1.94-2.15-8.4-2.15-8.4L312.41,232.55z"/>
<path class="st0" d="M288.44,58.37l-0.6-1.17c-0.51-1-0.12-2.22,0.88-2.73l16.41-8.4c1-0.51,2.22-0.12,2.73,0.88l0.6,1.17
	c0.51,1,0.12,2.22-0.88,2.73l-16.41,8.4C290.17,59.76,288.95,59.37,288.44,58.37z"/>
<path class="st1" d="M303.5,49.93L303.5,49.93c-1.3-2.54-0.29-5.65,2.24-6.95l4.59-2.35c2.54-1.3,5.65-0.29,6.95,2.24v0
	c1.3,2.54,0.29,5.65-2.24,6.95l-4.59,2.35C307.91,53.47,304.8,52.46,303.5,49.93z"/>
<path d="M367.68,216.66c0,0,4.18,1.79,3.04,2.92c-1.14,1.12,0.49,6.28,5.8,6.33l8.94-15.84c0,0,1.41-4.84,0.27-6.42
	c-1.14-1.58-7.26-4.73-7.26-4.73L367.68,216.66z"/>
<path class="st2" d="M311.25,127.76L301,180.13c0,0-2.91,5.24,0,15.48c2.91,10.24,10.25,39.45,10.25,39.45l26.29-8.74
	c0,0-11.63-33.46-10.8-37.95c0.83-4.49,5.81-21.22,5.81-21.22l2.7,14.26c0,0,0.21,3.21,6.64,10.46s26.99,27.72,26.99,27.72
	l15.36-26.72c0,0-24.29-19.48-25.54-28.97c-1.25-9.49-8.93-42.7-8.93-42.7S337.48,132.07,311.25,127.76z"/>
<path class="st3" d="M310.2,127.76c0,0,1.64-42.69,11.06-52.11c4.51-4.51,8.56-7.89,11.56-10.19c3.65-2.8,8.25-4.11,12.82-3.56
	c7.4,0.89,16.12,4.13,12.25,17.23c-4.36,14.79-11.75,10.47-10.82,27.21c0.94,16.75,3.88,14.85,3.88,14.85
	S335.42,135.56,310.2,127.76z"/>
<path class="st4" d="M324.2,77.14l14.56-5.95c1.54-0.63,3.25-0.68,4.82-0.12c3.06,1.09,6.84,3.75,1.38,9.8
	c-8.23,9.12-39.32,16.94-39.32,16.94s-9.42,4.28-10.59-10.65c-1.17-14.93,0-27.75,0-27.75s-0.2-11.52,1.16-8.66
	c1.36,2.86,2.11,4.37,1.96,8.43c-0.15,4.07-0.9-13.25,0.9-10.54c1.81,2.71,1.81,10.39,1.81,10.39s-1.05-11.59,0.3-11.29
	c1.36,0.3,1.96,9.03,1.96,9.03s0.45-5.72,1.36-4.37c0.9,1.36,0.75,8.88,0.75,8.88s-0.9,23.64,0.45,23.49
	C307.04,84.63,324.2,77.14,324.2,77.14z"/>
<path class="st5" d="M287.84,57.2c0,0-52.44,29.6-51.95,64c0.49,34.4,70.73,108.56-39.09,108.03S86.99,243.59,86.99,243.59"/>
<path class="st4" d="M356.35,33.56c0,0,5.18-7.76,12.94,0s-5.35,23.63-9.49,23.63c-4.14,0-6.12,7.04-6.12,7.04l-8.05-2.33
	c0,0,5.19-5.92,4.85-7.3c-0.35-1.38-5.18-3.82-3.8-7.43l1.81-3.51c0,0-1.64-1.6-0.51-2.73c1.13-1.12,5.03-2.25,5.8-3.44
	C354.56,36.32,356.35,33.56,356.35,33.56z"/>
<path class="st6" d="M361.76,30.16c0,0-3.71,0.03-5.58,1.75c-3.77,3.46,5.27,8.62,6.45,8.77c1.18,0.15,3.55-1.28,4.29,1.23
	s-4.15,6.29-5.62,6.44c-1.47,0.15-1.5,8.86-1.5,8.86s4.88,2.8,11-8.15c3.03-5.41,9.26,24.72,10.51,32.89
	c0.05,0.36,0.56,0.37,0.64,0.02c0.47-2.18,1.16-5.78,1.06-7.75c0,0,0.51,7.64,1.18,5.9c0,0,6.02-39.98-11.5-41.47
	C372.69,38.64,371.8,29.2,361.76,30.16z"/>
<path d="M136.74,37.36c0,0,1.21,5.3,2.38,5.3c1.17,0,2.7-5.3,2.7-5.3H136.74z"/>
<path d="M159.78,35.72c0,0,6.38,9.57,1.92,12.04c-4.46,2.47-3.26,5.72-7.34,4.34C150.28,50.72,159.78,35.72,159.78,35.72z"/>
<path d="M78.15,245.24c0,0,0.42,5.45-1.3,4.94c-1.72-0.51-5.98,4.34-3.23,9.89l20.45-0.36c0,0,5.55-1.49,6.52-3.64
	c0.97-2.15,0.87-10.44,0.87-10.44L78.15,245.24z"/>
<path d="M132.98,244.94c0,0,0.83,5.4-0.92,5.02s-5.64,4.78-2.48,10.11l20.37-1.9c0,0,5.42-1.9,6.23-4.12
	c0.81-2.22,0.08-10.48,0.08-10.48L132.98,244.94z"/>
<path class="st4" d="M205.84,105.42c-8.24-11.1-24.95-38.2-35.33-40.11c-3.8-0.7-2.97-1.08-5.27-2.12c-1.93,0.22-7.34-0.47-9.52-0.8
	c-0.43,0.03-0.87,0.06-1.31,0.06c-1.49,0.02-2.93-0.18-4.29-0.57c-2.02,0.05-4.06-0.15-6.2-0.8c-0.52-0.16-0.56-0.17-1.08-0.31
	c-1.48,0.18-3.97,0.02-6.46-0.24c-5.61-0.6-14.81-2.98-17.31-2.03c-2.5,0.95-36.88,39.63-38.31,38.79s-12.77-27.1-11.34-28.53
	c1.43-1.43,4.89-5.01,2.63-5.01c-2.27,0-7.76,2.75-4.66,0.24s7.52-9.43,4.89-9.07c-2.63,0.36-6.57,6.57-7.88,6.45
	c-1.31-0.12,4.3-5.97,3.1-6.68c-1.19-0.72-5.13,4.89-6.21,4.42c-1.07-0.48,2.75-4.3,1.43-4.3c-0.99,0-2.78,1.35-3.61,2.02
	c-0.64,0.87-1.32,1.72-2.05,2.51c-0.4,0.43-0.82,0.85-1.22,1.28c0,0.33,0.01,0.61,0.01,0.67c-0.04,1.58,0.03,3.16-0.05,4.75
	c-0.04,0.72-0.09,1.44-0.15,2.17c5.77,14.32,17.22,43.66,17.22,43.66s0.84,6.09,8.95,0c8.12-6.09,28.41-20.53,28.41-20.53
	l60.88,12.65c0,0,0.24-6.45,2.98-5.25c2.75,1.19,20.05,16.83,18.26,19.1c-1.79,2.27-19.22,23.28-19.22,23.28s-12.53-0.72-14.56,0
	c-2.03,0.72-5.73,6.57-4.89,7.52c0.84,0.95,4.18-3.7,4.66-3.22c0.48,0.48-4.66,4.42-3.94,6.68c0.72,2.27,4.89-4.54,5.97-4.3
	c1.07,0.24-6.68,7.88-5.01,8.36c1.67,0.48,6.57-5.73,7.16-5.13c0.6,0.6-4.54,5.61-3.58,5.97c0.95,0.36,5.25-3.94,5.85-3.58
	c0.6,0.36,6.92,2.15,6.92,2.15s0.72,1.19,4.54-2.03c3.82-3.22,29.6-30.8,29.6-30.8S214.08,116.52,205.84,105.42z"/>
<path class="st3" d="M134.03,59.7c0,0,1.14,16.39,9.21,17.64c8.07,1.24,21.11-14.24,21.11-14.24s9.32,0.99,11.18,2.03
	s11.18,10.76,11.18,10.76l-10.35,26.08l-4.79,1.57l-5.35,44.38c0,0-69.75-11.38-66.85-17.18c2.9-5.8,12.21-43.05,12.21-43.05
	s0.62,3.93-4.24,5.59c-4.87,1.66-11.9-13.04-11.9-13.04s20.68-22.05,24.09-22.18S134.03,59.7,134.03,59.7z"/>
<path class="st2" d="M98.9,131.19c0,0-24.9,33.91-25.41,38.97c-0.51,5.07-1.27,38.26,0,47.88c1.27,9.63,4.31,28.12,4.31,28.12h25.59
	c0,0-9.63-48.85,0-57.49s17.74-28.14,20.27-26.12s6.84,83.61,6.84,83.61s25.08-1.01,26.86-1.77s6.23-96.39,6.23-96.39L98.9,131.19z"
	/>
<path class="st4" d="M175.44,138.48c-0.02-0.03-0.04-0.05-0.06-0.08c-1.37,1.66-2.25,2.71-2.25,2.71s-12.53-0.72-14.56,0
	c-2.03,0.72-5.73,6.57-4.89,7.52c0.84,0.95,4.18-3.7,4.66-3.22c0.48,0.48-4.66,4.42-3.94,6.68c0.72,2.27,4.89-4.54,5.97-4.3
	c1.07,0.24-6.68,7.88-5.01,8.36c1.67,0.48,6.57-5.73,7.16-5.13c0.6,0.6-4.54,5.61-3.58,5.97c0.95,0.36,5.25-3.94,5.85-3.58
	c0.6,0.36,6.92,2.15,6.92,2.15s0.72,1.19,4.54-2.03c0.95-0.8,3.24-3.09,6.16-6.1C180,144.51,177.73,141.49,175.44,138.48z"/>
<path class="st4" d="M138.74,49.19c0.98,0.1-1.41,5.36,0.34,6.11c1.76,0.75,4.96,2.5,4.77,4.32c-0.14,1.36-2.33,1.87-6.14,1.45
	c2.4,2.61,4.71,5.29,7.18,7.84c1.04,0.92,2.12,1.78,3.25,2.59c1.86-1.46,3.68-2.98,5.67-4.28c1.83-1.19,3.7-2.29,5.58-3.37
	c-2.33-1.7-3.38-2.95-3.38-2.95l1.54-13.23c0,0,1.57-0.13,2.43-1.59c0.86-1.46,1.41-5.36-1.6-6.24c-3.01-0.88-0.01-2.54-2.36-3.07
	c-2.34-0.53-11.01-6.67-13.69-2.72c-2.68,3.95-5.27,7.07-5,9.92c0.26,2.85-1.18,3.12-1.25,3.82
	C135.99,48.47,137.76,49.08,138.74,49.19z"/>
<path d="M139.12,38.74c0,0-4.33-1.58-4.33-4.91c0,0-1.93-1.77,1.27-1.57c3.2,0.2-1.05-1.57,0.89-2.94
	c1.95-1.37,16.43-5.09,20.74,1.17s0.67,9.32,0.67,9.32S147.36,36.4,139.12,38.74z"/>
<path d="M139.12,38.74c0,0,12.38,2.09,14.73,2.3c2.35,0.2-0.51,7.6,1.53,7.65c2.03,0.05,2.16-1.02,2.16-1.02s-0.87-2.01,0.83-7.83
	s-8.29-6.42-8.29-6.42L139.12,38.74z"/>
<g>
	<g id="_x34_OOE72.tif_00000111153305403832304540000018216453607859482535_">
		<g>
			<path class="st2" d="M202.69,124.37c-1.77-5.55-5.3-9.48-10.45-12.05c-4.15-2.07-8.61-3.05-13.14-3.82
				c-3.16-0.54-6.38-0.7-9.51-1.5c-2.94-0.75-5.68-1.85-7.95-3.92c-1.76-1.61-3.09-3.56-4.47-5.49c-2.31-3.22-4.88-6.17-8.4-8.15
				c-1.85-1.04-3.83-1.57-5.95-1.21c-2.34,0.39-3.46,2.57-2.46,4.74c0.37,0.79,0.86,1.51,1.41,2.19c0.78,0.97,1.59,1.92,2.23,2.99
				c1.41,2.37,2.25,4.84,1.39,7.61c-0.43,1.38-1.31,2.4-2.74,2.83c-1.72,0.51-3.39,0.24-4.88-0.7c-5.72-3.63-11.48-7.2-17.22-10.79
				c-6.34-3.96-12.63-7.98-18.99-11.91c-4.47-2.76-8.86-5.66-13.34-8.4c-1.74-1.07-3.47-2.16-5.2-3.23
				c-6.18-3.84-12.3-7.76-18.44-11.66c-1.27-0.81-2.35-1.83-3.4-2.9c-1.79-1.82-3.13-3.99-4.75-5.95c-2.11-2.56-4.65-4.34-8.11-4.45
				c-0.63-0.02-1.06-0.37-1.4-0.87c-0.36-0.54-0.58-1.15-0.84-1.75c-0.99-2.34-2.76-3.47-5.12-3.3c-2.76,0.2-4.36,2.32-3.7,4.93
				c0.06,0.23,0.01,0.38-0.16,0.52c-0.23,0.2-0.38,0.02-0.5-0.12c-0.45-0.54-0.85-0.43-1.31,0.01c-0.69,0.65-0.77,0.97-0.37,1.83
				c0.32,0.67,0.82,1.16,1.44,1.57c0.66,0.44,1.13,0.2,1.67-0.21c0.55-0.41,0.44-0.81,0.14-1.28c-0.1-0.16-0.22-0.38,0.03-0.52
				c0.22-0.12,0.38,0.04,0.51,0.19c0.41,0.47,0.82,0.94,1.2,1.43c0.16,0.19,0.5,0.41,0.23,0.68c-0.23,0.23-0.44-0.07-0.64-0.19
				c-0.25-0.15-0.43-0.4-0.79-0.18c-0.98,0.61-1.16,1.21-0.64,2.24c0.32,0.64,0.8,1.12,1.41,1.5c0.71,0.44,1.19,0.09,1.73-0.33
				c0.55-0.43,0.24-0.81,0.04-1.23c-0.08-0.17-0.24-0.37,0.03-0.51c0.23-0.13,0.38,0.03,0.51,0.18c0.44,0.51,0.88,1.02,1.31,1.53
				c0.12,0.15,0.29,0.33,0.12,0.53c-0.22,0.25-0.4,0.01-0.58-0.1c-0.26-0.17-0.44-0.49-0.84-0.27c-0.99,0.55-1.2,1.21-0.71,2.24
				c0.3,0.63,0.78,1.08,1.34,1.47c0.65,0.45,1.17,0.27,1.75-0.18c0.57-0.45,0.39-0.87,0.1-1.35c-0.09-0.14-0.2-0.3,0-0.46
				c0.21-0.16,0.37-0.08,0.51,0.09c0.47,0.55,0.95,1.09,1.41,1.64c0.13,0.16,0.36,0.35,0.15,0.58c-0.21,0.23-0.4-0.02-0.59-0.12
				c-0.31-0.17-0.6-0.53-0.99-0.16c-0.42,0.4-1.03,0.7-0.83,1.45c0.26,0.99,0.86,1.72,1.73,2.24c0.71,0.43,1.21,0.04,1.72-0.4
				c0.48-0.41,0.23-0.78,0.01-1.18c-0.1-0.17-0.21-0.37,0.03-0.52c0.22-0.14,0.38,0.01,0.52,0.16c0.46,0.52,0.92,1.04,1.37,1.58
				c0.15,0.18,0.41,0.38,0.19,0.64c-0.27,0.32-0.42-0.07-0.61-0.16c-0.3-0.15-0.56-0.5-0.93-0.17c-0.41,0.37-1.06,0.61-0.91,1.32
				c0.24,1.17,0.9,2.03,2.02,2.5c0.68,0.28,1.07-0.2,1.49-0.57c0.39-0.34,0.2-0.72,0-1.08c-0.1-0.19-0.29-0.4,0.01-0.57
				c0.27-0.16,0.41,0.06,0.55,0.23c0.43,0.49,0.86,0.97,1.27,1.47c0.12,0.14,0.32,0.31,0.15,0.52c-0.2,0.23-0.41,0.06-0.59-0.06
				c-0.35-0.24-0.68-0.52-1.12-0.11c-0.46,0.43-0.99,0.8-0.71,1.56c0.32,0.87,0.82,1.58,1.64,2.06c0.66,0.39,1.16,0.1,1.68-0.31
				c0.52-0.41,0.34-0.8,0.11-1.24c-0.09-0.17-0.22-0.37,0-0.53c0.24-0.17,0.43-0.04,0.58,0.14c0.28,0.32,0.59,0.62,0.82,0.97
				c1.01,1.55,2.3,2.08,4.08,1.27c0.87-0.4,1.72-0.21,2.53,0.35c2.26,1.55,4.6,2.98,6.84,4.56c2.93,2.06,5.97,3.97,8.96,5.95
				c6.91,4.58,13.85,9.13,20.73,13.76c4.59,3.09,9.27,6.02,13.84,9.14c4.55,3.1,9.18,6.08,13.77,9.11c0.08,0.05,0.17,0.11,0.25,0.17
				c0.97,0.71,1.09,2,0.23,2.85c-0.51,0.51-1.11,0.92-1.74,1.28c-1.54,0.87-3.04,1.81-4.4,2.93c-0.29,0.24-0.61,0.34-0.91,0.33
				c-0.51,0.49-1,1.01-1.45,1.56c-0.01,0.01-0.02,0.03-0.03,0.04c0.05,0.25,0.07,0.51-0.17,0.72c-0.34,0.31-0.49,0.75-0.69,1.14
				c-1.47,2.86-1.35,5.66,0.44,8.34c1.45,2.17,3.63,3.45,5.95,4.48c2.84,1.26,5.83,2.01,8.88,2.52c3.19,0.53,6.13,1.64,8.66,3.74
				c1.97,1.64,3.4,3.68,4.73,5.82c2.35,3.78,4.58,7.65,7.3,11.19c2.59,3.37,5.56,6.32,9.35,8.33c6.5,3.45,15.47,1.92,20.06-2.31
				c0.84-0.77,1.7-1.54,2.48-2.37c2.71-2.86,5.09-5.97,7.26-9.25c0.47-0.71,0.87-1.5,1.66-1.96c0.42-0.25,0.53-0.14,0.63,0.3
				c0.08,0.36-0.08,0.92,0.57,0.96c0.59-0.92,1.19-1.84,1.78-2.76c-0.36-0.47-0.79-0.14-1.16-0.05c-0.46,0.1-0.56,0.01-0.54-0.45
				c0.01-0.26,0.03-0.48,0.16-0.7c0.56-0.91,1.08-1.84,1.66-2.74c1.94-3.02,3.62-6.16,5.04-9.46
				C203.57,133.14,204.12,128.88,202.69,124.37z"/>
		</g>
	</g>
	<path class="st7" d="M175.26,152.82l-3.46-2.29c-0.85-0.56-1.09-1.71-0.52-2.56l10.84-16.39c0.56-0.85,1.71-1.09,2.56-0.52
		l3.46,2.29c0.85,0.56,1.09,1.71,0.52,2.56l-10.84,16.39C177.26,153.15,176.11,153.39,175.26,152.82z"/>
	<path class="st7" d="M164.81,139.57l-0.75-0.5c-0.35-0.23-0.45-0.7-0.21-1.05l6.2-9.38c0.23-0.35,0.7-0.45,1.05-0.21l0.75,0.5
		c0.35,0.23,0.45,0.7,0.21,1.05l-6.2,9.38C165.63,139.7,165.16,139.8,164.81,139.57z"/>
	<path class="st7" d="M160.09,136.45l-0.75-0.5c-0.35-0.23-0.45-0.7-0.21-1.05l6.2-9.38c0.23-0.35,0.7-0.45,1.05-0.21l0.75,0.5
		c0.35,0.23,0.45,0.7,0.21,1.05l-6.2,9.38C160.91,136.58,160.44,136.68,160.09,136.45z"/>
	<line class="st8" x1="41.23" y1="48.13" x2="179.58" y2="139.61"/>
	<line class="st8" x1="44.6" y1="52.52" x2="179.93" y2="142"/>
	<line class="st8" x1="48.49" y1="57.67" x2="180.08" y2="144.5"/>
	<line class="st8" x1="53.19" y1="63.14" x2="177.82" y2="145.19"/>
</g>
<path class="st4" d="M84.89,93.82c-2.32,2.28-3.87,3.64-4.15,3.48c-1.43-0.84-12.77-27.1-11.34-28.53c1.43-1.43,4.89-5.01,2.63-5.01
	c-2.27,0-7.76,2.75-4.66,0.24c3.1-2.51,7.52-9.43,4.89-9.07c-2.63,0.36-6.57,6.57-7.88,6.45c-1.31-0.12,4.3-5.97,3.1-6.68
	c-1.19-0.72-5.13,4.89-6.21,4.42s2.75-4.3,1.43-4.3c-0.99,0-2.78,1.35-3.61,2.02c-0.64,0.87-1.32,1.72-2.05,2.51
	c-0.4,0.43-0.82,0.85-1.22,1.28c0,0.33,0.01,0.61,0.01,0.67c-0.04,1.58,0.03,3.16-0.05,4.75c-0.04,0.72-0.09,1.44-0.15,2.17
	c5.77,14.31,17.22,43.66,17.22,43.66s0.84,6.09,8.95,0c2.42-1.81,5.92-4.37,9.63-7.06C88.68,101.59,86.46,97.87,84.89,93.82z"/>
<path class="st4" d="M195.22,107.75c-4.74,0-9.17-0.94-13.2-2.61c5.46,5.01,11.42,11.32,10.33,12.7
	c-1.79,2.27-19.22,23.28-19.22,23.28s-12.53-0.72-14.56,0c-2.03,0.72-5.73,6.56-4.89,7.52c0.84,0.95,4.18-3.7,4.66-3.22
	c0.48,0.48-4.66,4.42-3.94,6.68c0.72,2.27,4.89-4.54,5.97-4.3s-6.68,7.88-5.01,8.36c1.67,0.48,6.57-5.73,7.16-5.13
	c0.6,0.6-4.54,5.61-3.58,5.97c0.95,0.36,5.25-3.94,5.85-3.58c0.6,0.36,6.92,2.15,6.92,2.15s0.72,1.19,4.54-2.03
	c3.82-3.22,29.6-30.8,29.6-30.8s8.01-6.04,0.31-16.87C202.64,107.08,198.95,107.75,195.22,107.75z"/>
</svg>
