<?xml version="1.0" encoding="utf-8"?>
<!-- Generator: Adobe Illustrator 26.4.0, SVG Export Plug-In . SVG Version: 6.00 Build 0)  -->
<svg version="1.1" id="Laag_1" xmlns="http://www.w3.org/2000/svg" xmlns:xlink="http://www.w3.org/1999/xlink" x="0px" y="0px"
	 viewBox="0 0 425.2 283.46" style="enable-background:new 0 0 425.2 283.46;" xml:space="preserve">
<style type="text/css">
	.st0{fill:#FCD6B6;}
	.st1{fill:#111D2D;}
	.st2{fill:#B52020;}
	.st3{fill:#2E2C7E;}
	.st4{fill:#7D5D51;}
	.st5{fill:#F7F6F7;}
</style>
<path class="st0" d="M268.84,185.18c0,0,6.21,16.15,5.89,22.8s-6.78,16.91-6.78,19.75s22.09,4.26,22.09,4.26s4.1-26.51,4.42-37.71
	c0.32-11.2,2.82-12.52,2.82-12.52l-3.93-11.62l-22.56-4.58l-5.52,4.73L268.84,185.18z"/>
<path class="st1" d="M211.82,196.21c0,0-2.15,11.18,4.2,11.75c6.35,0.56,11.47-8.14,11.47-8.14l4.2-2.33c0,0,6.15-3.78,3.5-8.02
	C232.54,185.23,211.82,196.21,211.82,196.21z"/>
<path class="st0" d="M215.01,178.46c0,0-8.23,12.86-1.62,20.13c6.61,7.27,18.3-1.1,18.3-1.1l5.25-12.03L215.01,178.46z"/>
<path class="st2" d="M297.28,181.76l2.56-29.43c0,0-28.1-12.47-66.42-12.42c0,0-21.63,35.58-18.4,38.54
	c3.23,2.96,9.15,9.42,19.92,7.54c10.77-1.88,26.38-21.53,26.38-21.53s4.04,20.45,7.54,20.72v-7c0,0,6.73-9.15,19.92-2.15
	C293.84,178.73,296.24,180.55,297.28,181.76z"/>
<path class="st0" d="M281.39,37.7l-12.83-0.86c0,0-1.62,10.19-0.74,12.9c0.88,2.71,0.17,8.23,2.96,8.78
	c0.61,0.12,0.74,0.2,2.31,0.37c1.68,0.19-0.17,4.17,0.65,5.23c0.82,1.06,15.59,6.92,14.88-0.65c-0.56-6-2.88-13.85-2.88-13.85
	s4.8-2.79,4-5.26c-0.8-2.48-3.91,0.26-3.91,0.26S287.21,39.49,281.39,37.7z"/>
<path class="st0" d="M107.69,65l41.71-42.71c0,0,12.99-15.41,5.34,1.44c0,0,4.29,0.16,2.61,2.34c0,0,3.71-0.27,2.56,1.97
	c0,0-7.28,10.42-10.4,12.4c-2.72,1.73-35.19,33.69-35.19,33.69l-12.5,12.59l-7.28-11.21L107.69,65z"/>
<path class="st3" d="M82.52,66.43c0,0,11.21-1.34,16.46,0c5.25,1.34,17.66,13.24,14.05,36.92s-21.67,28.9,6.02,63.81l-61.41,7.22
	c0,0-8.83-33.31,6.02-52.18s5.22-32.03,6.42-35.48C71.28,83.28,72.07,67.02,82.52,66.43z"/>
<path class="st0" d="M93.55,39.02c0,0,4.34,0.95,5.69,3.66c1.36,2.71,5.8,3.16,5.23,4.55c-0.35,0.87-1.39,1.89-1.18,2.72
	c0.69,2.72,2.17,7.14-0.82,7.03c-3.66-0.14-6.48,5.75-5.67,8.19c0.81,2.44-6.01,4.32-8.31,2.02c-2.3-2.3-3.86-9.39-3.86-9.39
	S82.85,42.95,93.55,39.02z"/>
<path class="st1" d="M98.46,41.58c0,0-4.79-3.18-4.78-2.08c0.02,2.07,0.01,9.42-4.99,11.68c-5,2.26,1.74,8.73,0.77,12.37
	c-0.97,3.64-0.97,3.64-0.97,3.64s-7.91-0.22-10.22,1.37c-2.31,1.58-6.69,9.22-6.69,9.22s-1.11,10.32-1.89,10.61
	c-0.78,0.29-12.89-1.82-13.09-7.84c-0.2-6.03-0.88-10.48,4.49-13.42s4.2-6.48,4.98-10.4c0.78-3.92,3.13-6.7,4.3-7.65
	s9.28-7.8,10.84-10.22C82.78,36.44,95.14,33.32,98.46,41.58z"/>
<path class="st0" d="M61.08,79.41c2.51-2.5,6.06-3.67,9.56-3.09c5.76,0.95,12.23,4.43,3.33,16.38
	c-13.85,18.61-33.98,22.51-33.98,22.51s-6.93,7.14-14.5-5.84S14.31,87.04,14.31,84.44s-4.8-17.63-3.66-20.22
	c0.94-2.13,4.88,5.65,4.66,11.28c0,0-1.21-14.64,0.53-13.23c1.74,1.41,4.24,15.2,4.24,15.2s-3.47-15.97-1.44-13.87
	s7.08,18.25,7.45,20.2c0.38,1.95,6.39,16.1,9.98,15.43C38.87,98.71,53.89,86.59,61.08,79.41z"/>
<path class="st0" d="M66.05,173.4c0,0,12.18,17.02,10.68,23.49s-20.51,36.83-21.7,39.07s-5.67,9.95-1.44,11.45s12.19,0,12.19,0
	s27.62-39.07,27.12-48.52c-0.5-9.46-2.34-28.37-2.34-28.37L66.05,173.4z"/>
<path class="st0" d="M90.8,173.02c0,0,7.64,5.21,8.35,10.44c0.72,5.23,3.21,54.49,4.2,57.23c1,2.74-0.5,6.22,7.71,4.73
	s9.72-1.24,7.97-15.93s2.55-45.29,0.65-51.01c-1.9-5.72-5.36-10.76-5.36-10.76l-23.77,2.8L90.8,173.02z"/>
<path class="st1" d="M60.94,217.93l-10.97,30.14l-0.87,11.48h5.94l0.85-6.79c0,0,1.74,6.09,10.97,6.79
	c9.23,0.7,13.76-6.27,9.23-7.31c-4.53-1.04-8.53-5.22-8.53-5.22l17.76-27.17L60.94,217.93z"/>
<path class="st1" d="M99.08,213.86l4.93,35.37v10.36h3.22h3c0,0-1.93,1,3.86,7s16.93,2.36,12.22-4.07
	c-4.72-6.43-6.11-19.72-6.11-19.72l2.04-31.08L99.08,213.86z"/>
<path class="st0" d="M327.56,59.73c0,0,64.25-4.24,72.59-5.56s15.07,0.59,9.81,1.17c-5.27,0.59-11.27,1.38-11.27,1.38
	s16.1-1.82,12,0.96s-12.73,1.02-12.73,1.02s12.44,1.9,9.51,3.95c-2.93,2.05-84.15,11.71-84.15,11.71L327.56,59.73z"/>
<path class="st0" d="M230.89,80.33c0,0-15.18,23.46-21.73,23.46s-30.35-4.14-35.87-4.14s-6.93,4.12-3.29,3.6
	c3.65-0.52,6.57-2.29,6.57-0.83s-8.31,1.46-8.58,4.59c-0.27,3.13-1.39,5.52,0,5.52c1.39,0,1.6-4.17,2.54-4.17s-2.5,4.27-0.73,4.79
	c1.77,0.52,2.72-4.89,3.97-4.69l-1.7,0.09c0,0-0.61,4.77,0.44,4.63c1.04-0.14,2.01-3.44,3.19-3.83c5-1.67,34.95,7.65,39.75,5.36
	c4.79-2.29,27.52-22.93,27.52-22.93L230.89,80.33z"/>
<path class="st3" d="M309.98,53.72c-6.76,0.56-13.35,4.78-17.86,3.78c-4.51-1-3.7,14.95-20.33,5.09s-24.24-3.97-42.28,17.75
	l13.44,14.84c0,0,4.17-6.31,4.45-4.42c0.28,1.89,3.49,14.48-1.02,18.15s-13.49,19.93-13.77,27.82
	c-0.28,7.89,17.19,18.04,45.38,15.22c19.28-1.93,21.94,0.36,21.7,2.01c0.02,0.02,0.05,0.04,0.07,0.07
	c1.25-2.15,3.15-7.02,1.34-15.04c-2.54-11.27,7.33-51.02,9.3-52.15c1.97-1.13,6.48-10.71,21.99-9.3l4.51-20.29
	C336.91,57.23,316.75,53.15,309.98,53.72z"/>
<path class="st4" d="M288.4,32.26c0,0-0.48-5.38-10.84-5.1c-10.36,0.27-9.75,5.67-11.21,5.26c-1.46-0.42-2.86-3.14-2.98-2.52
	c-0.12,0.62-0.11,5.13,2.54,6.04c0,0-1.22-1.01-3.35-1.95s2.89,5.59,5.37,6.08s0.59-1.69,0.59-1.69s9.8,3.09,12.36,1.92
	c0,0,0.81,3.12,2,3.61c1.19,0.49,1.1,2.92,1.03,3.94c0,0,0.65,0.12,1.25-2.07c0.6-2.19,3.77-2.16,3.77-2.16S293.1,34.26,288.4,32.26
	z"/>
<path class="st2" d="M267.95,227.74c0,0-1.74,17.53-9.78,36.77l23.11-6.22c0,0,6.71-17.3,8.77-26.29c2.05-8.99,1.42-9.74,1.42-9.74
	l-20.51-2.34C270.94,219.91,268.6,223.03,267.95,227.74z"/>
<path class="st1" d="M265.26,259.29c0,0-12.62,5.21-6.15,11.68c6.47,6.47,12.62-2.52,17.04-5.05s19.56-5.05,17.67-16.72
	c-1.89-11.68-14.36-2.37-14.36-2.37s-5.68,5.52-7.57,7.73C270,256.77,265.26,259.29,265.26,259.29z"/>
<g>
	<circle class="st5" cx="218.94" cy="252.33" r="19.27"/>
	<polygon points="223.45,256.85 217.28,258.49 212.78,253.97 214.44,247.81 220.61,246.17 225.11,250.69 	"/>
	<path d="M218.82,271.6l0.67-2.47l-4.5-4.52l-6.17,1.64l-0.57,2.12c1.53,1.02,3.23,1.84,5.08,2.4
		C215.15,271.32,217,271.59,218.82,271.6z"/>
	<path d="M233.95,260.25l-6.17,1.64l-1.67,6.16l1.48,1.49c3.31-1.66,6.13-4.27,8.04-7.59L233.95,260.25z"/>
	<path d="M238.14,253.98c0.33-3.82-0.5-7.58-2.26-10.83l-3.27,0.87l-1.67,6.16l4.5,4.52L238.14,253.98z"/>
	<path d="M219.02,233.06l-1.03,3.8l4.5,4.52l6.17-1.64l0.94-3.47c-1.52-1.01-3.2-1.82-5.04-2.38
		C222.72,233.33,220.86,233.07,219.02,233.06z"/>
	<path d="M201.76,243.62l1.15,1.15l6.17-1.64l1.67-6.16l-1.36-1.37C206.18,237.44,203.49,240.18,201.76,243.62z"/>
	<path d="M203.05,251.89l-3.37,0.89c0.09,3.81,1.31,7.46,3.44,10.52l2.77-0.73l1.67-6.16L203.05,251.89z"/>
</g>
</svg>
