<?xml version="1.0" encoding="UTF-8"?>
<svg id="Laag_1" data-name="Laag 1" xmlns="http://www.w3.org/2000/svg" xmlns:xlink="http://www.w3.org/1999/xlink" viewBox="0 0 15.3 11.53">
  <defs>
    <style>
      .cls-1 {
        clip-path: url(#clippath);
      }

      .cls-2 {
        fill: none;
      }

      .cls-2, .cls-3 {
        stroke-width: 0px;
      }

      .cls-3 {
        fill: #312783;
      }
    </style>
    <clipPath id="clippath">
      <rect class="cls-2" width="15.3" height="11.53"/>
    </clipPath>
  </defs>
  <g class="cls-1">
    <path class="cls-3" d="m13.78,4.63c-.32.25-.53.41-.74.57-1.15.91-2.28,1.84-3.46,2.72-1.34,1.01-2.54,1-3.89,0-.85-.63-1.66-1.31-2.5-1.97-.53-.42-1.07-.83-1.69-1.32,0,1.66.02,3.18-.01,4.7-.01.55.18.69.7.69,3.63-.02,7.27,0,10.9-.01.11,0,.21,0,.32,0,.23,0,.36-.12.36-.36,0-1.62,0-3.25,0-5.01M7.65,1.52c-1.83,0-3.67,0-5.5,0-.22,0-.53-.09-.59.2-.08.39-.18.83.2,1.14,1.67,1.33,3.34,2.66,5.03,3.97.55.42,1.16.41,1.72,0,.56-.4,1.1-.84,1.64-1.26,1.1-.86,2.18-1.74,3.28-2.59.43-.33.41-.77.32-1.2-.09-.42-.49-.25-.76-.25-1.78-.02-3.56,0-5.35,0m-.02,10.01c-1.98,0-3.95,0-5.93,0-1.15,0-1.69-.54-1.69-1.68C0,7.12,0,4.39,0,1.66,0,.55.55,0,1.67,0,5.66,0,9.64,0,13.63,0c1.12,0,1.66.55,1.67,1.66,0,2.74,0,5.49,0,8.23,0,1.08-.56,1.63-1.64,1.63-2.01,0-4.02,0-6.04,0"/>
  </g>
</svg>