<?xml version="1.0" encoding="UTF-8"?>
<svg id="Laag_1" data-name="Laag 1" xmlns="http://www.w3.org/2000/svg" xmlns:xlink="http://www.w3.org/1999/xlink" viewBox="0 0 16.08 16.13">
  <defs>
    <style>
      .cls-1 {
        clip-path: url(#clippath);
      }

      .cls-2 {
        fill: none;
      }

      .cls-2, .cls-3 {
        stroke-width: 0px;
      }

      .cls-3 {
        fill: #312783;
      }
    </style>
    <clipPath id="clippath">
      <rect class="cls-2" x="0" y="0" width="16.08" height="16.13"/>
    </clipPath>
  </defs>
  <g class="cls-1">
    <path class="cls-3" d="m6.6,10.53v-2.24q0-.21-.21-.21c-.24,0-.48,0-.72,0-.11,0-.16-.03-.15-.15,0-.47,0-.93,0-1.39,0-.11.04-.15.14-.15.24,0,.48,0,.72,0,.2,0,.22-.02.22-.22,0-.41,0-.83,0-1.24,0-.9.63-1.62,1.53-1.73.55-.07,1.1-.06,1.65-.06.19,0,.38-.02.57-.02.18,0,.19,0,.19.19v1.37c0,.2,0,.21-.21.21-.34,0-.68,0-1.02,0-.21,0-.38.13-.43.31-.02.07-.04.15-.04.22,0,.27.01.55.01.82,0,.11.05.14.15.14.46,0,.92,0,1.38,0,.12,0,.17.02.15.16-.07.47-.12.94-.18,1.41-.01.1-.06.13-.16.13-.39,0-.78,0-1.17,0q-.2,0-.2.19v4.52c0,.22,0,.22-.22.22-.62,0-1.24,0-1.85,0-.18,0-.18,0-.18-.19v-2.29h0Z"/>
    <path class="cls-3" d="m14.44,8.07c0-3.5-2.87-6.44-6.38-6.42-3.55.02-6.38,2.75-6.4,6.38-.02,3.62,2.75,6.41,6.39,6.44,3.5.03,6.38-2.89,6.39-6.4m-6.43,8.06C3.62,16.12,0,12.47,0,8.05,0,3.62,3.66-.02,8.1,0c4.39.02,8,3.69,7.98,8.11-.01,4.41-3.66,8.03-8.07,8.02"/>
  </g>
</svg>