<?xml version="1.0" encoding="UTF-8"?>
<svg id="Laag_1" data-name="Laag 1" xmlns="http://www.w3.org/2000/svg" xmlns:xlink="http://www.w3.org/1999/xlink" viewBox="0 0 49.59 49.54">
  <defs>
    <style>
      .cls-1 {
        clip-path: url(#clippath);
      }

      .cls-2 {
        fill: none;
      }

      .cls-2, .cls-3 {
        stroke-width: 0px;
      }

      .cls-3 {
        fill: #fff;
      }
    </style>
    <clipPath id="clippath">
      <rect class="cls-2" x="0" width="49.59" height="49.54"/>
    </clipPath>
  </defs>
  <g class="cls-1">
    <path class="cls-3" d="m34.44,13.1v-5.68c-2.25,0-4.46-.13-6.65.03-3.61.26-6.3,2.73-6.8,6.3-.26,1.8-.13,3.66-.18,5.5,0,.27,0,.54,0,.88h-5.66v6.19h5.67v15.86h6.87v-15.88h.79c1.47,0,2.94,0,4.41,0,.31,0,.54-.02.59-.41.24-1.9.51-3.8.77-5.78h-.73c-1.75,0-3.5-.01-5.25,0-.44,0-.61-.12-.6-.58.02-1.19-.01-2.38.01-3.56.05-1.89.89-2.75,2.78-2.87.34-.02.69-.01,1.04-.01.97,0,1.94,0,2.95,0M0,24.77C0,11.09,11.1,0,24.79,0c13.71,0,24.82,11.11,24.81,24.81-.02,13.67-11.14,24.75-24.82,24.73C11.09,49.53,0,38.44,0,24.77"/>
  </g>
</svg>