<?xml version="1.0" encoding="UTF-8"?>
<svg id="Laag_1" data-name="Laag 1" xmlns="http://www.w3.org/2000/svg" xmlns:xlink="http://www.w3.org/1999/xlink" viewBox="0 0 49.6 49.55">
  <defs>
    <style>
      .cls-1 {
        clip-path: url(#clippath);
      }

      .cls-2 {
        fill: none;
      }

      .cls-2, .cls-3 {
        stroke-width: 0px;
      }

      .cls-4 {
        clip-path: url(#clippath-1);
      }

      .cls-3 {
        fill: #fff;
      }
    </style>
    <clipPath id="clippath">
      <rect class="cls-2" width="49.6" height="49.55"/>
    </clipPath>
    <clipPath id="clippath-1">
      <rect class="cls-2" x="16.1" y="15.08" width="19.4" height="19.37"/>
    </clipPath>
  </defs>
  <g class="cls-1">
    <path class="cls-3" d="m39.32,24.84h.03c0-2.14.01-4.28,0-6.41,0-.77-.06-1.55-.15-2.32-.42-3.25-2.64-5.43-5.9-5.7-1.72-.14-3.45-.2-5.18-.19-3.87.02-7.74,0-11.6.21-3.58.2-5.79,2.48-6.09,6.05-.16,2-.21,4.01-.19,6.02.02,3.54.03,7.08.22,10.62.13,2.37,1.21,4.31,3.48,5.37,1.19.56,2.47.79,3.77.8,4.26.02,8.52.02,12.78,0,.91,0,1.82-.04,2.72-.14,2.06-.24,3.85-.99,4.99-2.84.76-1.24,1.11-2.63,1.13-4.07.04-2.46,0-4.92,0-7.39m-14.52,24.71C11.12,49.55.01,38.47,0,24.79-.01,11.1,11.12-.02,24.83,0c13.69.02,24.77,11.11,24.77,24.79,0,13.67-11.11,24.76-24.8,24.76"/>
  </g>
  <g class="cls-4">
    <path class="cls-3" d="m28.98,26.45c0-2.73-2.06-4.85-4.74-4.86-2.76-.01-4.87,2.06-4.88,4.78,0,2.71,2.08,4.81,4.77,4.82,2.73,0,4.84-2.07,4.85-4.75m3.27-.02c-.01,4.5-3.58,8.04-8.08,8.04-4.54,0-8.09-3.56-8.08-8.11.01-4.5,3.58-8.04,8.08-8.04,4.54,0,8.09,3.57,8.08,8.1"/>
    <path class="cls-3" d="m33.93,15.09c.92.01,1.57.69,1.56,1.62-.01.92-.69,1.57-1.62,1.56-.91-.01-1.58-.7-1.56-1.62.02-.91.7-1.58,1.62-1.56"/>
  </g>
</svg>