<?xml version="1.0" encoding="UTF-8"?>
<svg id="Laag_1" data-name="Laag 1" xmlns="http://www.w3.org/2000/svg" viewBox="0 0 14.75 14.71">
  <defs>
    <style>
      .cls-1 {
        fill: #312783;
        stroke-width: 0px;
      }
    </style>
  </defs>
  <path class="cls-1" d="m14.58,3.9c-.22-2.3-1.45-3.52-3.75-3.74-2.29-.22-4.61-.21-6.9,0C1.62.37.39,1.6.17,3.9c-.23,2.32-.22,4.67,0,6.98.22,2.32,1.48,3.51,3.81,3.76.43.05.87.06,1.31.06h0s.22,0,.22,0c.06,0,.12,0,.18,0h1.69c.98,0,1.96.02,2.94,0,2.48-.07,4.02-1.35,4.27-3.81.23-2.32.22-4.67,0-6.98Zm-1.43,6.98c-.14,1.51-.89,2.22-2.47,2.33-2.33.16-4.68.22-7.02-.06-1.14-.14-1.88-.89-2.04-2.04-.29-2.09-.09-4.19-.12-6.29,0-.19,0-.39.02-.58.18-1.81,1.06-2.66,2.88-2.72,1-.04,2,0,3,0h0c1.02,0,2.04-.03,3.05.02,1.62.08,2.54.8,2.69,2.37.22,2.32.22,4.66,0,6.98Z"/>
  <path class="cls-1" d="m7.37,3.61c-2.07,0-3.77,1.71-3.76,3.8.01,2.1,1.7,3.78,3.79,3.75,2.07-.03,3.73-1.69,3.74-3.76.01-2.06-1.71-3.79-3.77-3.8Zm-.06,6.15c-1.29-.05-2.34-1.14-2.3-2.4.03-1.3,1.09-2.35,2.36-2.34,1.29,0,2.39,1.13,2.37,2.41-.02,1.3-1.15,2.39-2.43,2.34Z"/>
  <path class="cls-1" d="m11.22,2.61c-.51.01-.89.42-.87.94.02.48.41.86.9.86.52,0,.9-.39.89-.91,0-.52-.41-.9-.92-.89Z"/>
</svg>