<?xml version="1.0" encoding="utf-8"?>
<!-- Generator: Adobe Illustrator 26.4.0, SVG Export Plug-In . SVG Version: 6.00 Build 0)  -->
<svg version="1.1" id="Laag_1" xmlns="http://www.w3.org/2000/svg" xmlns:xlink="http://www.w3.org/1999/xlink" x="0px" y="0px"
	 viewBox="0 0 283.46 283.46" style="enable-background:new 0 0 283.46 283.46;" xml:space="preserve">
<style type="text/css">
	.st0{fill:#FFFFFF;}
</style>
<path class="st0" d="M91.91,189.11c8.13-2.03,15.39-4.75,22.07-8.9c1.84-1.15,3.52-1.41,5.57-0.83c4.28,1.2,8.65,2,13.08,2.49
	c19.38,2.14,37.27-1.63,52.52-14.24c12.69-10.49,18.49-23.98,14.79-40.48c-2.89-12.86-11.07-22.05-22.13-28.76
	c-13.02-7.88-27.27-10.69-42.35-9.31c-16.12,1.47-30.31,7.29-41.35,19.42c-7.47,8.19-11.46,17.93-10.96,29.14
	c0.42,9.39,4.06,17.61,10.24,24.67c1.47,1.68,1.97,3.52,2.01,5.68C95.54,175.07,94.33,181.92,91.91,189.11 M142.34,76.23
	c21.55,0.51,40.74,7.01,55.98,22.83c20.4,21.18,20.27,52.28-0.13,73.53c-12.65,13.17-28.37,19.91-46.35,21.95
	c-10.33,1.18-20.49,0.25-30.57-1.92c-1.76-0.38-3.19-0.19-4.78,0.61c-13.64,6.77-28.31,10.34-43.11,13.46
	c-0.57,0.12-1.27,0.38-1.68-0.13c-0.72-0.9,0.11-1.68,0.46-2.41c3.94-8.19,7.51-16.52,9.42-25.45c0.35-1.63,0.68-3.28,0.91-4.93
	c0.38-2.7-0.06-5.04-1.82-7.44c-15.83-21.52-12.78-50.41,7.34-69.5c12.24-11.61,27.04-17.78,43.67-19.95
	C135.22,76.4,138.75,76.25,142.34,76.23"/>
<path class="st0" d="M129.98,125.7c-5.63,0-5.93-0.31-4.63-5.93c1.65-7.13,5.74-12.19,13.17-13.54c6.88-1.25,13.25-0.03,17.84,5.88
	c4.17,5.37,4.08,13.34-0.21,19.36c-1.71,2.4-3.76,4.56-5.63,6.85c-1.65,2.01-2.99,4.18-3,6.91c-0.01,1.62-0.86,2.31-2.4,2.32
	c-0.79,0-1.58,0.02-2.37,0.02c-6.01,0.01-6.42-0.45-5.51-6.45c0.72-4.77,3.7-8.16,7.04-11.32c2.08-1.98,4.17-3.94,4.2-7.16
	c0.04-3.33-1.26-5.42-4.14-6.39c-2.76-0.92-5.49-0.03-7.31,2.39c-0.66,0.87-1.08,1.86-1.38,2.93
	C134.54,125.71,134.52,125.7,129.98,125.7"/>
<path class="st0" d="M141.94,165.48c-3.55-0.07-6.29-2.94-6.19-6.5c0.1-3.32,3.02-6.16,6.33-6.16c3.43,0,6.39,3.02,6.33,6.45
	C148.34,162.85,145.53,165.55,141.94,165.48"/>
</svg>
