<?xml version="1.0" encoding="utf-8"?>
<!-- Generator: Adobe Illustrator 24.0.0, SVG Export Plug-In . SVG Version: 6.00 Build 0)  -->
<svg version="1.1" id="Laag_1" xmlns="http://www.w3.org/2000/svg" xmlns:xlink="http://www.w3.org/1999/xlink" x="0px" y="0px"
	 viewBox="0 0 1417.3 340.2" style="enable-background:new 0 0 1417.3 340.2;" xml:space="preserve">
<style type="text/css">
	.st0{fill:url(#SVGID_1_);}
	.st1{fill:#FFFFFF;stroke:#FFFFFF;stroke-width:2;stroke-miterlimit:10;}
	.st2{fill:#FFFFFF;stroke:#FFFFFF;stroke-width:1.5;stroke-miterlimit:10;}
	.st3{fill:#FFFFFF;}
</style>
<linearGradient id="SVGID_1_" gradientUnits="userSpaceOnUse" x1="28.0922" y1="172.4937" x2="1389.2999" y2="172.4937" gradientTransform="matrix(1 0 0 -1 0 342.3937)">
	<stop  offset="0" style="stop-color:#B51F1F"/>
	<stop  offset="1" style="stop-color:#312782"/>
</linearGradient>
<path class="st0" d="M1388.6,242.8c0.1-7-2.3-10.3-9.5-11.6c-17.8-3.4-32.3-12.8-41.8-28.5c-23.5-38.4-5.3-84.3,37.8-94.5
	c8.1-1.9,10.3-5.5,9.8-13.1c-0.8-11.1-0.6-22.3-1-33.4c-0.9-21.4-9.6-30-31.1-30.2c-21.2-0.2-42.4,0.4-63.6-0.2h-44.5
	c-112.9,0.4-399.7,0.5-536,0.5c-136.3-0.1-423.2-0.1-536-0.5h-44.5c-21.2,0.5-42.4,0-63.6,0.2c-21.4,0.2-30.2,8.8-31.1,30.2
	c-0.5,11.1-0.2,22.3-1,33.4c-0.5,7.7,1.7,11.2,9.8,13.1c43.1,10.3,61.3,56.1,37.8,94.5c-9.6,15.7-24,25.1-41.8,28.5
	c-7.2,1.4-9.6,4.7-9.5,11.6c0.1,12.2-0.8,24.4-0.7,36.6c0.1,20.4,8.3,28.6,28.6,28.7c15.8,0.1,31.7,0,47.5,0v0.2H124
	c0.2,0,0.4,0,0.5,0h37.3c3.3,0,6.7,0,10.2,0h71.3c129.1,0,323.8,0.1,440.6,0.2l0,0c7.6,0,15.9,0,24.8,0c9,0,17.3,0,24.8,0l0,0
	c116.8-0.1,311.5-0.2,440.6-0.2h71.3c3.5,0,6.9,0,10.2,0h37.3c0.2,0,0.4,0,0.5,0l25.2-0.2l0,0c14,0,28.1,0.1,42.1,0
	c20.3-0.1,28.5-8.3,28.6-28.7C1389.3,267.2,1388.4,254.9,1388.6,242.8z"/>
<g>
	<path class="st1" d="M202.2,203.9c-6-5.6-9.2-13.4-9.6-23.4c-0.1-2.3-0.1-5.9-0.1-11c0-5,0-8.7,0.1-11c0.3-9.8,3.5-17.4,9.7-23
		c6.1-5.5,14.6-8.3,25.3-8.3c7.2,0,13.5,1.2,18.7,3.7s9.2,5.5,11.9,9.2c2.7,3.7,4.1,7.3,4.2,10.8c0,0.7-0.2,1.3-0.7,1.8
		s-1.1,0.7-1.9,0.7h-12.4c-0.8,0-1.4-0.2-1.8-0.5c-0.4-0.3-0.7-0.8-1.1-1.5c-1.1-2.9-3-5.4-5.8-7.4s-6.5-3.1-11.2-3.1
		c-5.5,0-9.8,1.5-12.9,4.4c-3.1,3-4.7,7.5-4.9,13.7c-0.1,2.3-0.1,5.7-0.1,10.4c0,4.6,0,8,0.1,10.4c0.2,6.4,1.8,11.1,5,14.1
		c3.1,3,7.5,4.5,13,4.5c5.6,0,10.1-1.5,13.5-4.5s5.1-7.5,5.1-13.5v-3.7h-14.4c-0.8,0-1.5-0.3-2-0.8c-0.6-0.5-0.8-1.2-0.8-2v-6.5
		c0-0.8,0.3-1.5,0.8-2s1.2-0.8,2-0.8h28.3c0.9,0,1.6,0.3,2.1,0.8c0.5,0.6,0.8,1.2,0.8,2v12.5c0,6.5-1.5,12.2-4.4,17.1
		c-2.9,4.8-7,8.6-12.4,11.2c-5.4,2.6-11.6,3.9-18.8,3.9C216.7,212.2,208.2,209.5,202.2,203.9z"/>
	<path class="st1" d="M285.9,204.1c-6-5.4-9.1-13.5-9.4-24.2c-0.1-2.3-0.1-5.6-0.1-10c0-4.5,0-7.9,0.1-10.1
		c0.3-10.5,3.5-18.5,9.7-24.1c6.1-5.6,14.4-8.4,24.9-8.4c10.4,0,18.7,2.8,24.8,8.4c6.2,5.6,9.4,13.6,9.7,24.1
		c0.2,4.6,0.2,7.9,0.2,10.1c0,2.1-0.1,5.5-0.2,10c-0.3,10.7-3.5,18.8-9.5,24.2s-14.4,8.1-25.1,8.1S291.9,209.5,285.9,204.1z
		 M323.6,193.8c3.1-3.1,4.7-8,5-14.5c0.2-4.7,0.2-7.9,0.2-9.6c0-1.8-0.1-5-0.2-9.6c-0.2-6.4-1.9-11.3-5.1-14.5
		c-3.1-3.2-7.3-4.8-12.4-4.8c-5.2,0-9.4,1.6-12.5,4.8s-4.8,8-5,14.5c-0.1,2.3-0.1,5.5-0.1,9.6c0,4,0,7.2,0.1,9.6
		c0.2,6.5,1.8,11.3,4.9,14.5s7.3,4.8,12.6,4.8C316.3,198.6,320.5,197,323.6,193.8z"/>
	<path class="st1" d="M535.3,210.2c-0.6-0.5-0.8-1.2-0.8-2v-65h-21.8c-0.8,0-1.5-0.3-2-0.8c-0.6-0.5-0.8-1.3-0.8-2.1v-8.9
		c0-0.9,0.3-1.6,0.8-2.1s1.2-0.8,2.1-0.8h60.3c0.9,0,1.6,0.3,2.1,0.8c0.5,0.6,0.8,1.3,0.8,2.1v8.9c0,0.9-0.3,1.6-0.8,2.1
		c-0.6,0.6-1.3,0.8-2.1,0.8h-21.7v65c0,0.8-0.3,1.5-0.8,2c-0.5,0.6-1.2,0.8-2.1,0.8h-11.1C536.5,211.1,535.8,210.8,535.3,210.2z"/>
	<path class="st1" d="M589.9,210.2c-0.6-0.5-0.8-1.2-0.8-2v-76.9c0-0.9,0.3-1.6,0.8-2.1s1.2-0.8,2-0.8h11.3c0.9,0,1.6,0.3,2.1,0.8
		s0.8,1.2,0.8,2.1v76.9c0,0.8-0.3,1.5-0.8,2c-0.5,0.6-1.2,0.8-2.1,0.8h-11.3C591.1,211.1,590.5,210.8,589.9,210.2z"/>
	<path class="st1" d="M631.8,203.9c-5.9-5.5-9.1-13.4-9.5-23.7c-0.1-2.1-0.1-5.6-0.1-10.4c0-4.9,0-8.4,0.1-10.6
		c0.4-10.1,3.6-17.9,9.6-23.5s14.4-8.4,25.1-8.4c7,0,13.1,1.2,18.3,3.6c5.2,2.4,9.2,5.7,12.1,9.9c2.9,4.2,4.4,8.9,4.5,14v0.2
		c0,0.6-0.3,1.2-0.8,1.6c-0.5,0.4-1.1,0.6-1.7,0.6H678c-0.9,0-1.7-0.2-2.1-0.6c-0.5-0.4-0.9-1.2-1.2-2.3c-1.2-4.9-3.2-8.3-6.1-10.3
		c-2.9-2-6.8-3-11.6-3c-11.3,0-17.1,6.3-17.6,18.9c-0.1,2.1-0.1,5.4-0.1,9.8c0,4.4,0,7.7,0.1,10c0.5,12.6,6.3,18.9,17.6,18.9
		c4.7,0,8.6-1,11.5-3c3-2,5-5.4,6.2-10.3c0.3-1.1,0.7-1.9,1.2-2.3c0.5-0.4,1.2-0.6,2.1-0.6h11.4c0.7,0,1.3,0.2,1.8,0.7
		s0.7,1.1,0.6,1.8c-0.2,5.2-1.7,9.9-4.5,14c-2.9,4.2-6.9,7.5-12.1,9.9c-5.2,2.4-11.3,3.6-18.3,3.6
		C646.2,212.2,637.8,209.5,631.8,203.9z"/>
	<path class="st1" d="M707.3,210.2c-0.6-0.5-0.8-1.2-0.8-2v-76.8c0-0.9,0.3-1.6,0.8-2.1s1.2-0.8,2.1-0.8H720c0.9,0,1.6,0.3,2.1,0.8
		c0.5,0.6,0.8,1.3,0.8,2.1V159l26.3-28.4c1.2-1.4,2.7-2.1,4.6-2.1h12c0.6,0,1.2,0.2,1.7,0.7s0.8,1.1,0.8,1.8c0,0.6-0.2,1-0.6,1.4
		L735.6,168l34.5,39.1c0.3,0.6,0.5,1.1,0.5,1.5c0,0.7-0.2,1.3-0.7,1.8s-1,0.7-1.7,0.7h-12.4c-1.7,0-2.8-0.3-3.5-1s-1.1-1-1.2-1.1
		l-28.2-31.2v30.4c0,0.8-0.3,1.5-0.8,2c-0.6,0.6-1.3,0.8-2.1,0.8h-10.6C708.5,211.1,707.8,210.8,707.3,210.2z"/>
	<path class="st1" d="M784,210.2c-0.6-0.5-0.8-1.2-0.8-2v-76.8c0-0.9,0.3-1.6,0.8-2.1s1.2-0.8,2.1-0.8h52c0.9,0,1.6,0.3,2.1,0.8
		c0.5,0.6,0.8,1.3,0.8,2.1v7.9c0,0.9-0.3,1.6-0.8,2.1c-0.6,0.5-1.3,0.8-2.1,0.8h-38.7v20.6h36.1c0.9,0,1.6,0.3,2.1,0.8
		c0.5,0.6,0.8,1.3,0.8,2.1v7.4c0,0.9-0.3,1.6-0.8,2.1c-0.6,0.5-1.3,0.8-2.1,0.8h-36.1v21.4H839c0.9,0,1.6,0.3,2.1,0.8
		s0.8,1.2,0.8,2.1v8c0,0.9-0.3,1.6-0.8,2.1c-0.6,0.5-1.3,0.8-2.1,0.8h-53C785.3,211.1,784.6,210.8,784,210.2z"/>
	<path class="st1" d="M878.5,210.2c-0.6-0.5-0.8-1.2-0.8-2v-65h-21.8c-0.8,0-1.5-0.3-2-0.8c-0.6-0.5-0.8-1.3-0.8-2.1v-8.9
		c0-0.9,0.3-1.6,0.8-2.1s1.2-0.8,2.1-0.8h60.3c0.9,0,1.6,0.3,2.1,0.8c0.5,0.6,0.8,1.3,0.8,2.1v8.9c0,0.9-0.3,1.6-0.8,2.1
		c-0.6,0.6-1.3,0.8-2.1,0.8h-21.7v65c0,0.8-0.3,1.5-0.8,2c-0.5,0.6-1.2,0.8-2.1,0.8h-11.1C879.7,211.1,879.1,210.8,878.5,210.2z"/>
	<path class="st2" d="M945.4,209.2c-4.5-2-8-4.6-10.4-7.8s-3.7-6.7-3.8-10.4c0-0.6,0.2-1.2,0.7-1.7s1.1-0.7,1.8-0.7h2.4
		c1.4,0,2.3,0.8,2.6,2.4c0.5,3.8,2.7,7.1,6.5,9.9s9.2,4.2,16.3,4.2c7.5,0,13-1.4,16.7-4.1c3.7-2.7,5.5-6.5,5.5-11.4
		c0-3-0.9-5.4-2.7-7.4c-1.8-1.9-4.3-3.6-7.7-5.1s-8.5-3.3-15.3-5.5c-6.1-2-10.8-3.9-14.2-5.8c-3.4-1.9-6-4.2-7.6-7
		c-1.7-2.8-2.5-6.3-2.5-10.5c0-4,1.1-7.6,3.2-10.9c2.2-3.2,5.3-5.8,9.4-7.6c4.1-1.8,9-2.8,14.6-2.8c5.8,0,10.8,1,15,3.1
		s7.3,4.7,9.4,7.9s3.3,6.4,3.4,9.6c0,0.6-0.2,1.2-0.6,1.7c-0.4,0.5-1,0.7-1.8,0.7h-2.4c-0.6,0-1.1-0.2-1.7-0.5
		c-0.6-0.4-0.9-1-0.9-1.8c-0.5-3.9-2.6-7.2-6.3-9.7c-3.7-2.6-8.4-3.8-14.1-3.8c-6.1,0-10.9,1.2-14.5,3.5c-3.6,2.4-5.4,5.9-5.4,10.6
		c0,3.1,0.8,5.6,2.4,7.6c1.6,2,4,3.7,7.3,5.2c3.2,1.5,8,3.2,14.3,5.3c6.4,2,11.5,4,15.1,5.9s6.4,4.2,8.2,6.8
		c1.8,2.7,2.8,6.1,2.8,10.4c0,7.1-2.6,12.6-7.9,16.6c-5.3,4-12.5,6-21.7,6C955.2,212.2,949.9,211.2,945.4,209.2z"/>
	<path class="st2" d="M1008.5,210.4c-0.5-0.5-0.7-1.1-0.7-1.9v-77.3c0-0.8,0.2-1.4,0.7-1.9s1.1-0.8,1.9-0.8h2.1c0.9,0,1.5,0.2,2,0.7
		s0.7,1.1,0.7,2v34.5h45.5v-34.5c0-0.8,0.2-1.4,0.7-1.9s1.1-0.8,1.9-0.8h2.1c0.9,0,1.5,0.2,2,0.7s0.7,1.1,0.7,2v77.3
		c0,0.8-0.3,1.4-0.8,1.9s-1.2,0.7-1.9,0.7h-2.1c-0.8,0-1.4-0.2-1.9-0.7s-0.7-1.1-0.7-1.9v-35.8h-45.5v35.8c0,0.8-0.3,1.4-0.8,1.9
		s-1.2,0.7-1.9,0.7h-2.1C1009.6,211.1,1009,210.8,1008.5,210.4z"/>
	<path class="st2" d="M1087.2,179.7c-0.1-2.4-0.1-5.7-0.1-9.9s0-7.6,0.1-9.9c0.3-10.7,3.2-18.8,8.7-24.3s13-8.3,22.4-8.3
		s16.9,2.8,22.4,8.3s8.4,13.6,8.7,24.3c0.2,4.7,0.2,8,0.2,9.9s-0.1,5.2-0.2,9.9c-0.6,21.7-10.9,32.6-31.2,32.6
		C1098.1,212.2,1087.8,201.4,1087.2,179.7z M1135.3,198.7c4.2-4.3,6.5-10.8,6.8-19.6c0.2-4.7,0.2-7.8,0.2-9.3s-0.1-4.6-0.2-9.3
		c-0.3-8.8-2.6-15.4-6.8-19.6c-4.2-4.3-9.9-6.4-16.9-6.4s-12.6,2.1-16.9,6.4c-4.2,4.3-6.5,10.8-6.8,19.6c-0.1,2.4-0.1,5.5-0.1,9.3
		c0,3.9,0,7,0.1,9.3c0.3,8.8,2.6,15.4,6.8,19.6c4.2,4.3,9.9,6.4,16.9,6.4S1131.1,203,1135.3,198.7z"/>
	<path class="st2" d="M1169.1,210.4c-0.5-0.5-0.7-1.1-0.7-1.9v-77.3c0-0.8,0.2-1.4,0.7-1.9s1.1-0.8,1.9-0.8h28.7
		c8.4,0,15,2.1,19.9,6.3c4.8,4.2,7.3,10.2,7.3,18.1c0,7.9-2.4,13.9-7.3,18.1c-4.8,4.2-11.5,6.3-19.9,6.3h-23.8v31.2
		c0,0.8-0.3,1.4-0.8,1.9s-1.2,0.7-1.9,0.7h-2.1C1170.2,211.1,1169.6,210.8,1169.1,210.4z M1199.1,170.2c6.8,0,11.8-1.5,15.2-4.4
		c3.4-3,5.1-7.3,5.1-12.9s-1.7-10-5.1-12.9s-8.5-4.4-15.2-4.4h-23.2v34.7h23.2V170.2z"/>
</g>
<g>
	<rect x="421.9" y="31.9" class="st3" width="12.6" height="18.2"/>
	<rect x="421.9" y="93.9" class="st3" width="12.6" height="54.5"/>
	<rect x="421.9" y="192.2" class="st3" width="12.6" height="54.5"/>
	<rect x="421.9" y="290.5" class="st3" width="12.6" height="18.1"/>
</g>
</svg>
