<?xml version="1.0" encoding="UTF-8"?>
<svg id="Laag_1" data-name="Laag 1" xmlns="http://www.w3.org/2000/svg" xmlns:xlink="http://www.w3.org/1999/xlink" viewBox="0 0 35.88 50.06">
  <defs>
    <style>
      .cls-1 {
        clip-path: url(#clippath);
      }

      .cls-2 {
        fill: none;
      }

      .cls-2, .cls-3, .cls-4 {
        stroke-width: 0px;
      }

      .cls-3 {
        fill: #9b4a21;
      }

      .cls-4 {
        fill: #f5b7b7;
      }
    </style>
    <clipPath id="clippath">
      <rect class="cls-2" width="35.88" height="50.06"/>
    </clipPath>
  </defs>
  <g class="cls-1">
    <path class="cls-4" d="m16.24,35.61s.19,9.81-1.49,12.74c-1.68,2.93,10.28,1.21,10.28,1.21l-.53-14.1-8.26.15Z"/>
    <path class="cls-4" d="m12.79,36.12s-6.94-7.2-6.95-10.09c-.02-2.89-1.09-11.86-1.09-11.86l14.45-5.32,12.88,2.54.12,9.31s2.63-3.05,2.65-.56c.03,2.49-1.51,5.21-1.01,5.9.49.68-1.82,1.77-2.23,1.23-.41-.55-.14,8.45-4.23,8.86s-11.4,3.62-14.59,0"/>
    <path class="cls-3" d="m33.84,7.41s0,0,0,0c0,0,0,0,0,0m-.02,0s0,0,0,0m2,1.34c-.07-.33-.26-.63-.34-.96-.03-.07-.05-.14-.08-.2-.72-1.29-1.84-2.09-3.27-2.53-.23-.07-.33-.17-.37-.41-.09-.54-.24-1.06-.42-1.57-.28-.8-.6-1.58-1.16-2.24-.12-.16-.28-.29-.43-.44-.04-.04-.09-.11-.17-.07-.08.04-.08.12-.05.2.02.06.05.12.08.17.17.34.33.68.42,1.05.2.71.44,1.41.44,2.17-.11-.02-.15-.1-.19-.15-.97-1.41-2.34-2.32-3.97-2.91C24.47.19,22.53-.01,20.56,0c-3.35.02-6.62.58-9.83,1.43-1.76.47-3.45.58-5.1-.34-.45-.25-.67-.12-.79.4-.21.92-.32,1.85-.26,2.79.05.73.15,1.45.79,1.97-1.73-.06-3.1-.84-4.31-2.03.11.76.12,1.46.08,2.16-.04.79-.06,1.58.1,2.36.31,1.5,1.07,2.68,2.54,3.37.07.03.15.06.19.17-.64.34-1.27.72-2.05.71-.78-.01-1.38-.41-1.94-.9.46,1.68,1.21,3.14,3.05,3.87-.83.32-1.62-.03-2.44.05.7.74,2.17,1.49,3.75,1.45h0c.12.68.23,1.36.35,2.04.13.53.26,1.07.39,1.6.06.12,0,.25.04.37.14.44.28.87.44,1.3.05.14.1.29.23.38.04.08.07.15.11.23.21.44.37.92.7,1.3-.2-.86-.34-1.72-.46-2.6-.2-1.57-.32-3.15-.45-4.73,1.29-.29,2.46-.85,3.61-1.45,2.5-1.31,5.16-2.17,7.95-2.65,1.31-.22,2.64-.16,3.96-.31,1.1-.12,2.24-.12,3.14-.91.2-.17.31-.11.32.16.03.84-.05,1.66-.62,2.36-.21.26-.12.4.23.43.31.03.62-.04.92-.06.78-.05,1.53-.2,2.26-.46.47-.16.92-.37,1.29-.7.46-.42.46-.42.8.12.39.61.65,1.28.98,1.92.79,1.52,1.1,3.14,1.1,4.82,0,.85.04,1.7-.07,2.55,0,.37,0,.74,0,1.11,0,.12-.04.3.12.32.14.02.19-.16.24-.27.12-.29.23-.57.33-.86.22-.63.45-1.26.66-1.9.17-.53.35-1.05.46-1.59.05-.26.17-.31.41-.24.36.1.71.23,1.03.41.17.1.33.13.36-.14,0-.06,0-.13.02-.19.44-2.75.64-5.52.25-8.29-.18-1.27-.52-2.5-1.26-3.6-.07-.2-.2-.36-.36-.5,0,0,.01,0,.02.01.1.13.28.25.46.37.02.05.07.07.12.07.12.02.18.11.26.19.28.26.51.55.75.84.08.09.16.25.31.19.16-.07.06-.23.04-.34"/>
    <path class="cls-3" d="m10.33,20.52s.8-1.37,2.77-1.07c1.97.3,2.74,1.33.89,1.07-1.9-.27-3.76.37-3.67,0"/>
    <path class="cls-3" d="m26.18,19.91s-.84-1.37-2.88-1.07c-2.04.3-2.84,1.33-.93,1.07,1.97-.27,3.9.37,3.81,0"/>
    <path class="cls-3" d="m14.56,22.6l.04.78c.02.42-.3.79-.73.81l-.56.03c-.42.02-.79-.3-.81-.73l-.04-.78c-.02-.43.3-.79.73-.81l.56-.03c.42-.02.79.3.81.73"/>
    <path class="cls-3" d="m24.43,22.28l.04.78c.02.42-.3.79-.73.81l-.56.03c-.42.02-.79-.3-.81-.73l-.04-.78c-.02-.43.3-.79.73-.81l.56-.03c.42-.02.79.3.81.73"/>
    <path class="cls-3" d="m19.62,23.29c-.29,1.2-.12,2.46.46,3.55.05.1.15.23.11.35-.04.11-.19.21-.26.29-.21.21-.42.41-.68.56-.36.21-.96.31-1.23-.11-.23-.35-.79-.03-.56.33.33.52.96.7,1.55.57.64-.14,1.26-.68,1.66-1.19.23-.3.23-.62.08-.95-.16-.33-.33-.64-.43-.99-.22-.73-.24-1.5-.06-2.24.1-.41-.53-.58-.63-.17"/>
    <path class="cls-3" d="m15.37,31.74c.63,1.4,1.58,2.44,2.65,2.55,1.07.1,2.26-.86,2.8-2.55-1.84-.25-3.69-.42-5.55-.51"/>
  </g>
</svg>