<?xml version="1.0" encoding="UTF-8"?>
<svg id="Laag_1" data-name="Laag 1" xmlns="http://www.w3.org/2000/svg" xmlns:xlink="http://www.w3.org/1999/xlink" viewBox="0 0 29.94 41.65">
  <defs>
    <style>
      .cls-1 {
        clip-path: url(#clippath);
      }

      .cls-2 {
        fill: none;
      }

      .cls-2, .cls-3, .cls-4 {
        stroke-width: 0px;
      }

      .cls-3 {
        fill: #704024;
      }

      .cls-4 {
        fill: #f5b7b7;
      }
    </style>
    <clipPath id="clippath">
      <rect class="cls-2" x="0" y="0" width="29.94" height="41.65"/>
    </clipPath>
  </defs>
  <g class="cls-1">
    <path class="cls-3" d="m12.64,1.04S.22-.03,0,15.06c-.21,15.09,3.1,16.44,4.14,21.92,1.03,5.48,20.78,2.89,22.95-2.17,2.17-5.07,3.41-17.27,2.58-20.99C28.85,10.1,28.79.05,18.64.04c0,0-4.03-.35-6,1"/>
    <path class="cls-4" d="m4.83,16.86s-1.25.14-.73,3.46c.61,3.96,1.88,1.63,1.88,1.63,0,0,1.91,6.36,6.07,9.69,3.94,3.15,10.74,2.33,13.63-6.81,2.32-7.32.73-3.09.73-3.09,0,0,1.77.33,1.88-1.66.1-1.99.63-4.97-1.36-4.42,0,0-.83.11-.83,1.44,0,0-.55-4.99-4.42-5.55-4.18-.61-8.02-5.21-9.33-5-6.6,1.05-5.8,14.68-5.94,10.64-.03-.78-1.57-.31-1.57-.31"/>
    <path class="cls-3" d="m13.69,14.43c-.97,0-1.92-.24-2.89-.16-.81.07-1.59.35-2.21.88-.23.2.07.6.33.43.61-.41,1.37-.51,2.09-.53.88-.02,1.77.09,2.65.04.35-.02.35-.56,0-.54-1.63.09-3.56-.42-5.02.57.11.14.22.28.33.43,1.36-1.16,3.12-.56,4.72-.56.35,0,.35-.54,0-.54"/>
    <path class="cls-3" d="m17.34,14.79c.88-.08,1.73-.36,2.61-.42.81-.06,1.63.11,2.32.56.09-.16.18-.31.27-.47-1.61-.83-3.46-.17-5.15-.11-.35.01-.35.56,0,.54.88-.03,1.75-.21,2.63-.28.75-.06,1.56-.04,2.25.32.31.16.57-.28.27-.47-.7-.46-1.56-.67-2.4-.64-.95.03-1.86.34-2.8.43-.34.03-.35.58,0,.54"/>
    <path class="cls-3" d="m16.43,16.5c-.03.84.26,1.61.61,2.36.39.85.68,1.71.81,2.64.05.33.14.76-.22.93-.21.1-.44.16-.67.2-.51.11-1.26.2-1.68-.2-.12-.12-.32.07-.19.19.43.42,1.12.4,1.67.32.43-.06,1.13-.16,1.34-.6.18-.38.02-.95-.06-1.34-.1-.52-.24-1.02-.43-1.51-.39-.98-.95-1.89-.9-2.98,0-.17-.26-.17-.27,0"/>
    <path class="cls-3" d="m13.69,25.4c-.07.93.6,1.79,1.53,1.87.46.04.91-.11,1.25-.42.19-.17.35-.37.5-.58.15-.2.25-.44.22-.7-.02-.17-.29-.17-.27,0,.03.23-.07.41-.21.59-.13.17-.28.34-.44.49-.29.26-.67.38-1.06.34-.8-.08-1.32-.83-1.26-1.6.01-.17-.26-.17-.27,0"/>
    <path class="cls-3" d="m12.69,17.77c0,.81-.48,1.47-1.08,1.47s-1.08-.66-1.08-1.47.48-1.47,1.08-1.47,1.08.66,1.08,1.47"/>
    <path class="cls-3" d="m11.62,16.3s-.26.05-.52-.35c0,0-.1.16.44.49l-1.06-.32c-.14.01.75.45.91.45,0,0-1.7-.32-1.6-.28,0,0,1.03.55,1.35.54.33,0,.48-.54.48-.54"/>
    <path class="cls-4" d="m14.66,30.65s.94,7.23-2.01,9.31c-2.95,2.08,8.05,1.65,8.05,1.65,0,0-3-9.74-2.41-11.28.59-1.54-3.62.32-3.62.32"/>
    <path class="cls-3" d="m19.45,17.54c0,.81.49,1.47,1.09,1.47s1.09-.66,1.09-1.47-.49-1.47-1.09-1.47-1.09.66-1.09,1.47"/>
    <path class="cls-3" d="m20.54,16.07s.27.05.53-.35c0,0,.1.16-.45.49l1.08-.32c.15.01-.76.45-.93.45,0,0,1.72-.32,1.62-.28,0,0-1.04.55-1.37.54-.33,0-.49-.54-.49-.54"/>
  </g>
</svg>