<?xml version="1.0" encoding="UTF-8"?>
<svg id="Laag_1" data-name="Laag 1" xmlns="http://www.w3.org/2000/svg" xmlns:xlink="http://www.w3.org/1999/xlink" viewBox="0 0 33.81 51.3">
  <defs>
    <style>
      .cls-1 {
        clip-path: url(#clippath);
      }

      .cls-2 {
        fill: none;
      }

      .cls-2, .cls-3, .cls-4 {
        stroke-width: 0px;
      }

      .cls-3 {
        fill: #2b2b2a;
      }

      .cls-4 {
        fill: #f5b7b7;
      }
    </style>
    <clipPath id="clippath">
      <rect class="cls-2" x="0" y="0" width="33.81" height="51.3"/>
    </clipPath>
  </defs>
  <g class="cls-1">
    <path class="cls-4" d="m14.03,33.59s1.75,6.16.44,9.79c-1.31,3.62-10.47,2.32-10.47,2.32l17.23,5.42,11.11.18-.45-4.01s-6.88-.52-7.28-1.59c-.4-1.07-4.47-8.65-1.92-10.59s-8.66-1.52-8.66-1.52"/>
    <path class="cls-4" d="m3.61,20.41s-2.32-.75-1.63,4.57c.41,3.19,2.69,1.69,2.94,2.57.25.88,2.88,8.89,9.39,9.39s15.93-3.59,16.34-8.95c0,0,3.28-.86,3.16-3.63-.13-2.77.37-4.37-1.86-4.16-2.24.2-6.62-9.17-6.62-9.17l-13.9-2.75-7.82,12.14Z"/>
    <path class="cls-3" d="m32.04,22.59c-.04,1.01-.07,2.02-.12,3.04-.01.26.21.65-.21.76-.32.08-.51-.24-.7-.46-.64-.76-.69-1.68-.76-2.62-.23-3.19-1.42-5.89-4.17-7.73-1.15-.77-2.45-1.12-3.83-1.13-3.68-.02-7.36-.04-11.05-.02-3.12.02-5.72,2.59-5.83,5.71-.04,1.27-.01,2.54-.03,3.81,0,.82-.15,1.61-.81,2.19-.18.15-.46.32-.66.29-.31-.06-.2-.41-.21-.65-.03-1.14-.05-2.28-.08-3.42.02-2.66.02-5.33.08-7.99.02-.66-.38-.85-.82-1.12C.64,11.88.9,8.98,0,6.31c1.28.38,2.44,1.05,3.9.92-1.03-1.24-1.83-2.53-1.88-4.3,1.4,1.03,3.44,2.4,5.08,2.31,0,0,.41-1.01,1.73-2.06C13.06-.17,17.69-.95,22.72,1.21c1.25.54,2.4,1.25,3.39,2.19,1.23,1.17,2.24,2.53,3.88,3.31,1.28.61,1.68,2.08,1.81,3.46.32,3.33.07,6.68.15,10.02.02.8.06,1.6.09,2.4"/>
    <path class="cls-3" d="m11.92,24.67h-.22c-.56,0-1.02-.45-1.02-1.02v-1.6c0-.56.45-1.02,1.02-1.02h.22c.56,0,1.02.45,1.02,1.02v1.6c0,.56-.45,1.02-1.02,1.02"/>
    <path class="cls-3" d="m9.57,20.01c.94-.47,2.09-1.05,3.11-.45.37.22.7-.36.34-.57-1.25-.74-2.61-.13-3.78.45-.38.19-.05.77.34.57"/>
    <path class="cls-3" d="m9.73,19.6s0-.03,0-.04v.18c-.06.04-.07.06-.04.06.03,0,.06-.02.1-.02.08-.02.15-.05.23-.08.11-.05.21-.11.31-.18.23-.16.43-.31.71-.36.55-.1,1.17.05,1.65.32.38.21.71-.37.34-.57-.67-.37-1.55-.56-2.31-.35-.35.1-.59.33-.9.51-.15.09-.32.09-.47.17-.21.12-.3.33-.25.56.09.42.73.24.64-.18"/>
    <path class="cls-3" d="m21.7,24.42h.22c.56,0,1.01-.45,1.01-1.01v-1.61c0-.56-.45-1.01-1.01-1.01h-.22c-.56,0-1.01.45-1.01,1.01v1.61c0,.56.45,1.01,1.01,1.01"/>
    <path class="cls-3" d="m24.37,19.19c-1.16-.59-2.52-1.19-3.76-.45-.37.22-.03.79.34.57,1.01-.6,2.16-.02,3.09.45.38.19.72-.38.34-.57"/>
    <path class="cls-3" d="m24.51,19.53c.05-.23-.04-.44-.25-.56-.14-.08-.31-.08-.45-.16-.32-.18-.55-.42-.91-.52-.75-.21-1.63-.02-2.3.35-.38.21-.04.78.34.57.48-.27,1.09-.42,1.64-.32.27.05.47.19.69.35.1.08.21.14.32.2.07.03.15.06.23.08.03,0,.06.01.1.02.04,0,.02-.01-.04-.06v-.18s0,.03,0,.04c-.09.42.55.6.64.18"/>
    <path class="cls-3" d="m16.54,21.51c.09,1.05.2,2.26-.37,3.2-.26.43-.67.75-.97,1.16-.3.41-.46.88-.4,1.39.04.33.09.72.34.96.24.22.56.18.86.14.78-.13,1.71-.07,2.33-.63.24-.21-.11-.57-.35-.35-.51.46-1.41.39-2.04.49-.33.05-.49.07-.59-.29-.12-.45-.09-.87.16-1.27.23-.38.59-.67.86-1.02.27-.33.45-.72.56-1.13.23-.86.17-1.76.1-2.64-.03-.32-.53-.32-.5,0"/>
    <path class="cls-3" d="m17.46,32.43c.96.24,1.98.46,2.93.06.38-.16.72-.42.94-.78.27-.42.34-.92.38-1.41.03-.32-.47-.32-.5,0-.03.4-.09.82-.31,1.16-.19.29-.49.5-.82.62-.81.29-1.68.07-2.49-.13-.31-.08-.44.4-.13.48"/>
  </g>
</svg>