<?xml version="1.0" encoding="utf-8"?>
<!-- Generator: Adobe Illustrator 26.4.0, SVG Export Plug-In . SVG Version: 6.00 Build 0)  -->
<svg version="1.1" id="Laag_1" xmlns="http://www.w3.org/2000/svg" xmlns:xlink="http://www.w3.org/1999/xlink" x="0px" y="0px"
	 viewBox="0 0 283.46 283.46" style="enable-background:new 0 0 283.46 283.46;" xml:space="preserve">
<style type="text/css">
	.st0{fill:#FFFFFF;}
</style>
<g>
	<path class="st0" d="M211.99,163.11c0,9.45-0.03,18.9,0.01,28.36c0.02,5.19-1.1,10.11-3.14,14.84c-3.65,8.46-9.56,15.1-16.93,20.49
		c-9.69,7.08-20.6,11.23-32.31,13.5c-7.63,1.48-15.34,2.01-23.06,1.53c-17.26-1.06-33.31-5.79-47.11-16.69
		c-7.51-5.93-13.11-13.3-16.18-22.45c-1.18-3.52-1.74-7.15-1.74-10.85c-0.01-19.21-0.15-38.41,0.05-57.62
		c0.11-10.94,5.1-19.37,14.59-24.96c0.95-0.56,1.26-1.2,1.3-2.22c0.7-16.37,5.4-31.4,15.29-44.6c6-8,13.52-14.18,22.89-17.91
		c4.4-1.75,8.99-2.73,13.73-2.98c12.37-0.66,23.08,3.49,32.39,11.39c11.2,9.49,17.81,21.81,21.59,35.8
		c1.39,5.14,2.21,10.38,2.58,15.69c0.06,0.93,0.22,1.87,0.15,2.8c-0.07,0.9,0.27,1.42,1.07,1.86c4.38,2.41,7.87,5.78,10.47,10.04
		c2.81,4.6,4.38,9.57,4.37,15C211.97,143.78,211.99,153.45,211.99,163.11z M201.8,163.03c0-9.94,0-19.87,0-29.81
		c0-0.48,0.02-0.98-0.06-1.44c-1.27-6.86-4.92-11.9-11.36-14.78c-2.88-1.29-4.32-3.46-4.32-6.6c0-2.9-0.21-5.78-0.54-8.67
		c-1.07-9.41-3.77-18.31-8.44-26.57c-4.29-7.59-9.86-14.04-17.43-18.52c-9.47-5.61-19.46-6.66-29.83-2.86
		c-7.16,2.63-12.88,7.31-17.7,13.11c-5.84,7.04-9.64,15.14-12.04,23.93c-1.72,6.32-2.59,12.77-2.59,19.32c0,3.27-1.33,5.63-4.42,6.9
		c-0.58,0.24-1.14,0.55-1.69,0.86c-6.23,3.54-9.63,9.01-9.7,16.04c-0.2,19.42-0.1,38.83,0.02,58.25c0.02,3.28,0.69,6.41,1.96,9.42
		c2.94,7.02,7.76,12.52,13.87,16.96c12.01,8.72,25.74,12.3,40.29,13.2c6.25,0.39,12.48-0.15,18.65-1.23
		c8.66-1.52,16.92-4.2,24.52-8.69c7.08-4.18,13.14-9.43,17.18-16.73c2.31-4.18,3.66-8.63,3.64-13.48
		C201.76,182.11,201.8,172.57,201.8,163.03z"/>
	<path class="st0" d="M141.69,111.59c-7.91,0-15.82,0-23.72,0c-2.31,0-4.19-0.82-5.35-2.91c-0.7-1.26-0.74-2.66-0.66-4.06
		c0.25-4.38,0.77-8.71,1.97-12.94c1.91-6.75,4.86-12.95,9.97-17.9c4.08-3.95,8.91-6.52,14.61-7.17c7.84-0.89,14.75,1.28,20.54,6.72
		c5.89,5.52,9.14,12.5,10.95,20.24c0.92,3.92,1.32,7.89,1.49,11.92c0.14,3.23-2.06,6.15-6.17,6.12
		C157.45,111.55,149.57,111.59,141.69,111.59z M141.59,101.53c6.16,0,12.32-0.01,18.47,0.02c0.85,0,1.07-0.31,0.93-1.07
		c-0.13-0.68-0.22-1.37-0.34-2.05c-1.13-6.21-3.17-12.02-7.57-16.75c-4.05-4.35-9.01-5.93-14.78-4.71c-4.3,0.91-7.45,3.6-9.91,7.13
		c-3.42,4.92-5.12,10.47-5.9,16.36c-0.12,0.94,0.11,1.11,0.99,1.1C129.51,101.51,135.55,101.53,141.59,101.53z"/>
	<path class="st0" d="M129.14,186.56c0-3.41-0.02-6.82,0.02-10.23c0.01-0.88-0.23-1.5-0.87-2.14c-7.6-7.45-7.66-19.84,0.02-27.21
		c5.53-5.31,12.2-6.92,19.49-4.52c7.35,2.42,11.7,7.73,12.9,15.37c1.01,6.49-0.97,12.1-5.77,16.65c-0.4,0.38-0.51,0.76-0.51,1.27
		c0.01,3.83,0.08,7.67-0.02,11.5c-0.08,3.19,0.04,6.38,0.02,9.57c-0.02,3.67-2.03,5.82-5.69,5.96c-4.76,0.18-9.53,0.22-14.3-0.01
		c-3.28-0.16-5.26-2.39-5.29-5.7C129.11,193.56,129.14,190.06,129.14,186.56z M139.31,184.33c0,2.53,0.02,5.07-0.01,7.6
		c-0.01,0.71,0.25,0.97,0.96,0.94c0.99-0.04,1.99-0.05,2.99,0c0.77,0.04,0.99-0.27,0.99-1c0.02-6.04,0.14-12.07,0.07-18.11
		c-0.03-2.6,0.88-4.52,2.94-6.04c3.04-2.24,4.05-5.35,3.33-8.97c-1.09-5.48-6.66-8.5-11.98-6.58c-3.41,1.23-5.79,4.21-5.86,8.34
		c-0.05,3.06,1.22,5.55,3.73,7.37c1.77,1.28,2.83,3.01,2.79,5.22C139.18,176.85,139.53,180.59,139.31,184.33z"/>
</g>
</svg>
