<?xml version="1.0" encoding="UTF-8"?>
<svg id="Laag_1" data-name="Laag 1" xmlns="http://www.w3.org/2000/svg" viewBox="0 0 671.08 112.85">
  <defs>
    <style>
      .cls-1, .cls-2 {
        fill: #2e2a74;
      }

      .cls-2 {
        opacity: .3;
      }
    </style>
  </defs>
  <path class="cls-1" d="m1.88,47.89c3.82,3.69,7.61,7.4,11.41,11.1,3.16,3.08,6.33,6.15,9.51,9.22,1.32,1.29,2.65,2.57,3.99,3.84.21.21.3.4.24.73-.92,5.24-1.82,10.47-2.72,15.72-.97,5.63-1.95,11.26-2.93,16.9-.15.9-.35,1.81-.44,2.72-.2,2.17.93,3.87,3,4.58.11.04.23.1.33.15h1.76c.55-.24,1.12-.44,1.64-.73,2.13-1.13,4.27-2.26,6.42-3.38,8.11-4.24,16.25-8.49,24.36-12.77.55-.29.94-.24,1.47.04,4.93,2.6,9.88,5.19,14.83,7.78,4.5,2.35,8.99,4.71,13.5,7.06,1.04.54,2.06,1.17,3.16,1.59,2.64,1.04,5.57-.87,5.73-3.69.08-1.14-.24-2.22-.43-3.33-.85-5.04-1.75-10.06-2.61-15.09-.94-5.45-1.85-10.91-2.85-16.35-.21-1.14-.03-1.85.84-2.66,3.05-2.85,5.99-5.8,8.97-8.73,2.69-2.62,5.36-5.26,8.04-7.9.08-.08.15-.14.23-.21,2.6-2.55,5.22-5.06,7.77-7.65,1.07-1.08,1.37-2.46.94-3.93-.55-1.93-1.93-2.91-3.88-3.19-6.65-.92-13.31-1.86-19.96-2.79-4.98-.7-9.98-1.42-14.97-2.12-.3-.04-.51-.15-.64-.44-.18-.41-.38-.8-.58-1.21-1.78-3.62-3.57-7.23-5.35-10.85-3.24-6.58-6.48-13.17-9.72-19.75-.31-.64-.72-1.22-1.29-1.66-2.2-1.66-5.24-.99-6.5,1.46-1.02,1.98-1.97,3.99-2.96,6-1.95,3.93-3.88,7.86-5.83,11.79-2.34,4.75-4.67,9.49-6.99,14.24-.13.25-.29.38-.57.41-5.63.83-11.25,1.67-16.88,2.49-5.98.88-11.95,1.76-17.93,2.62-1.51.21-2.71.88-3.47,2.24-.21.36-.35.78-.51,1.18v1.66c.29,1.18,1.03,2.06,1.88,2.89"/>
  <path class="cls-1" d="m140.1,47.89c3.82,3.69,7.61,7.4,11.41,11.1,3.16,3.08,6.33,6.15,9.51,9.22,1.32,1.29,2.65,2.57,3.99,3.84.21.21.3.4.24.73-.92,5.24-1.82,10.47-2.72,15.72-.97,5.63-1.95,11.26-2.93,16.9-.15.9-.35,1.81-.44,2.72-.2,2.17.93,3.87,3,4.58.11.04.23.1.33.15h1.76c.55-.24,1.12-.44,1.64-.73,2.13-1.13,4.27-2.26,6.42-3.38,8.11-4.24,16.25-8.49,24.36-12.77.55-.29.94-.24,1.47.04,4.93,2.6,9.88,5.19,14.83,7.78,4.5,2.35,8.99,4.71,13.5,7.06,1.04.54,2.06,1.17,3.16,1.59,2.64,1.04,5.57-.87,5.73-3.69.08-1.14-.24-2.22-.43-3.33-.85-5.04-1.75-10.06-2.61-15.09-.94-5.45-1.85-10.91-2.85-16.35-.21-1.14-.03-1.85.84-2.66,3.05-2.85,5.99-5.8,8.97-8.73,2.69-2.62,5.36-5.26,8.04-7.9.08-.08.15-.14.23-.21,2.6-2.55,5.22-5.06,7.77-7.65,1.07-1.08,1.37-2.46.94-3.93-.55-1.93-1.93-2.91-3.88-3.19-6.65-.92-13.31-1.86-19.96-2.79-4.98-.7-9.98-1.42-14.97-2.12-.3-.04-.51-.15-.64-.44-.18-.41-.38-.8-.58-1.21-1.78-3.62-3.57-7.23-5.35-10.85-3.24-6.58-6.48-13.17-9.72-19.75-.31-.64-.72-1.22-1.29-1.66-2.2-1.66-5.24-.99-6.5,1.46-1.02,1.98-1.97,3.99-2.96,6-1.95,3.93-3.88,7.86-5.83,11.79-2.34,4.75-4.67,9.49-6.99,14.24-.13.25-.29.38-.57.41-5.63.83-11.25,1.67-16.88,2.49-5.98.88-11.95,1.76-17.93,2.62-1.51.21-2.71.88-3.47,2.24-.21.36-.35.78-.51,1.18v1.66c.29,1.18,1.03,2.06,1.88,2.89"/>
  <path class="cls-1" d="m278.32,47.89c3.82,3.69,7.61,7.4,11.41,11.1,3.16,3.08,6.33,6.15,9.51,9.22,1.32,1.29,2.65,2.57,3.99,3.84.21.21.3.4.24.73-.92,5.24-1.82,10.47-2.72,15.72-.97,5.63-1.95,11.26-2.93,16.9-.15.9-.35,1.81-.44,2.72-.2,2.17.93,3.87,3,4.58.11.04.23.1.33.15h1.76c.55-.24,1.12-.44,1.64-.73,2.13-1.13,4.27-2.26,6.42-3.38,8.11-4.24,16.25-8.49,24.36-12.77.55-.29.94-.24,1.47.04,4.93,2.6,9.88,5.19,14.83,7.78,4.5,2.35,8.99,4.71,13.5,7.06,1.04.54,2.06,1.17,3.16,1.59,2.64,1.04,5.57-.87,5.73-3.69.08-1.14-.24-2.22-.43-3.33-.85-5.04-1.75-10.06-2.61-15.09-.94-5.45-1.85-10.91-2.85-16.35-.21-1.14-.03-1.85.84-2.66,3.05-2.85,5.99-5.8,8.97-8.73,2.69-2.62,5.36-5.26,8.04-7.9.08-.08.15-.14.23-.21,2.6-2.55,5.22-5.06,7.77-7.65,1.07-1.08,1.37-2.46.94-3.93-.55-1.93-1.93-2.91-3.88-3.19-6.65-.92-13.31-1.86-19.96-2.79-4.98-.7-9.98-1.42-14.97-2.12-.3-.04-.51-.15-.64-.44-.18-.41-.38-.8-.58-1.21-1.78-3.62-3.57-7.23-5.35-10.85-3.24-6.58-6.48-13.17-9.72-19.75-.31-.64-.72-1.22-1.29-1.66-2.2-1.66-5.24-.99-6.5,1.46-1.02,1.98-1.97,3.99-2.96,6-1.95,3.93-3.88,7.86-5.83,11.79-2.34,4.75-4.67,9.49-6.99,14.24-.13.25-.29.38-.57.41-5.63.83-11.25,1.67-16.88,2.49-5.98.88-11.95,1.76-17.93,2.62-1.51.21-2.71.88-3.47,2.24-.21.36-.35.78-.51,1.18v1.66c.29,1.18,1.03,2.06,1.88,2.89"/>
  <path class="cls-1" d="m416.53,47.89c3.82,3.69,7.61,7.4,11.41,11.1,3.16,3.08,6.33,6.15,9.51,9.22,1.32,1.29,2.65,2.57,3.99,3.84.21.21.3.4.24.73-.92,5.24-1.82,10.47-2.72,15.72-.97,5.63-1.95,11.26-2.93,16.9-.15.9-.35,1.81-.44,2.72-.2,2.17.93,3.87,3,4.58.11.04.23.1.33.15h1.76c.55-.24,1.12-.44,1.64-.73,2.13-1.13,4.27-2.26,6.42-3.38,8.11-4.24,16.25-8.49,24.36-12.77.55-.29.94-.24,1.47.04,4.93,2.6,9.88,5.19,14.83,7.78,4.5,2.35,8.99,4.71,13.5,7.06,1.04.54,2.06,1.17,3.16,1.59,2.64,1.04,5.57-.87,5.73-3.69.08-1.14-.24-2.22-.43-3.33-.85-5.04-1.75-10.06-2.61-15.09-.94-5.45-1.85-10.91-2.85-16.35-.21-1.14-.03-1.85.84-2.66,3.05-2.85,5.99-5.8,8.97-8.73,2.69-2.62,5.36-5.26,8.04-7.9.08-.08.15-.14.23-.21,2.6-2.55,5.22-5.06,7.77-7.65,1.07-1.08,1.37-2.46.94-3.93-.55-1.93-1.93-2.91-3.88-3.19-6.65-.92-13.31-1.86-19.96-2.79-4.98-.7-9.98-1.42-14.97-2.12-.3-.04-.51-.15-.64-.44-.18-.41-.38-.8-.58-1.21-1.78-3.62-3.57-7.23-5.35-10.85-3.24-6.58-6.48-13.17-9.72-19.75-.31-.64-.72-1.22-1.29-1.66-2.2-1.66-5.24-.99-6.5,1.46-1.02,1.98-1.97,3.99-2.96,6-1.95,3.93-3.88,7.86-5.83,11.79-2.34,4.75-4.67,9.49-6.99,14.24-.13.25-.29.38-.57.41-5.63.83-11.25,1.67-16.88,2.49-5.98.88-11.95,1.76-17.93,2.62-1.51.21-2.71.88-3.47,2.24-.21.36-.35.78-.51,1.18v1.66c.29,1.18,1.03,2.06,1.88,2.89"/>
  <path class="cls-2" d="m554.75,47.89c3.82,3.69,7.61,7.4,11.41,11.1,3.16,3.08,6.33,6.15,9.51,9.22,1.32,1.29,2.65,2.57,3.99,3.84.21.21.3.4.24.73-.92,5.24-1.82,10.47-2.72,15.72-.97,5.63-1.95,11.26-2.93,16.9-.15.9-.35,1.81-.44,2.72-.2,2.17.93,3.87,3,4.58.11.04.23.1.33.15h1.76c.55-.24,1.12-.44,1.64-.73,2.13-1.13,4.27-2.26,6.42-3.38,8.11-4.24,16.25-8.49,24.36-12.77.55-.29.94-.24,1.47.04,4.93,2.6,9.88,5.19,14.83,7.78,4.5,2.35,8.99,4.71,13.5,7.06,1.04.54,2.06,1.17,3.16,1.59,2.64,1.04,5.57-.87,5.73-3.69.08-1.14-.24-2.22-.43-3.33-.85-5.04-1.75-10.06-2.61-15.09-.94-5.45-1.85-10.91-2.85-16.35-.21-1.14-.03-1.85.84-2.66,3.05-2.85,5.99-5.8,8.97-8.73,2.69-2.62,5.36-5.26,8.04-7.9.08-.08.15-.14.23-.21,2.6-2.55,5.22-5.06,7.77-7.65,1.07-1.08,1.37-2.46.94-3.93-.55-1.93-1.93-2.91-3.88-3.19-6.65-.92-13.31-1.86-19.96-2.79-4.98-.7-9.98-1.42-14.97-2.12-.3-.04-.51-.15-.64-.44-.18-.41-.38-.8-.58-1.21-1.78-3.62-3.57-7.23-5.35-10.85-3.24-6.58-6.48-13.17-9.72-19.75-.31-.64-.72-1.22-1.29-1.66-2.2-1.66-5.24-.99-6.5,1.46-1.02,1.98-1.97,3.99-2.96,6-1.95,3.93-3.88,7.86-5.83,11.79-2.34,4.75-4.67,9.49-6.99,14.24-.13.25-.29.38-.57.41-5.63.83-11.25,1.67-16.88,2.49-5.98.88-11.95,1.76-17.93,2.62-1.51.21-2.71.88-3.47,2.24-.21.36-.35.78-.51,1.18v1.66c.29,1.18,1.03,2.06,1.88,2.89"/>
  <path class="cls-1" d="m554.75,47.89c3.82,3.69,7.61,7.4,11.41,11.1,3.16,3.08,6.33,6.15,9.51,9.22,1.32,1.29,2.65,2.57,3.99,3.84.21.21.3.4.24.73-.92,5.24-1.82,10.47-2.72,15.72-.97,5.63-1.95,11.26-2.93,16.9-.15.9-.35,1.81-.44,2.72-.2,2.17.93,3.87,3,4.58.11.04.23.1.33.15h1.76c.55-.24,1.12-.44,1.64-.73,2.13-1.13,4.27-2.26,6.42-3.38,8.11-4.24,16.25-8.49,24.36-12.77.55-.29.94-.24,1.47.04,4.93,2.6,9.88,5.19,14.83,7.78,4.5,2.35,8.99,4.71,13.5,7.06,1.04.54,2.06,1.17,3.16,1.59,2.64,1.04,5.57-.87,5.73-3.69.08-1.14-.24-2.22-.43-3.33-.85-5.04-1.75-10.06-2.61-15.09-.94-5.45-1.85-10.91-2.85-16.35-.21-1.14-.03-1.85.84-2.66,3.05-2.85,5.99-5.8,8.97-8.73,2.69-2.62,5.36-5.26,8.04-7.9.08-.08.15-.14.23-.21,2.6-2.55,5.22-5.06,7.77-7.65,1.07-1.08,1.37-2.46.94-3.93-.55-1.93-1.93-2.91-3.88-3.19-6.65-.92-13.31-1.86-19.96-2.79-4.98-.7-9.98-1.42-14.97-2.12-.3-.04-.51-.15-.64-.44-.18-.41-.38-.8-.58-1.21-1.78-3.62-3.57-7.23-5.35-10.85-3.24-6.58-6.48-13.17-9.72-19.75-.31-.64-.72-1.22-1.29-1.66-2.2-1.66-5.24-.99-6.5,1.46-1.02,1.98-1.97,3.99-2.96,6-1.95,3.93-3.88,7.86-5.83,11.79-2.34,4.75-4.67,9.49-6.99,14.24-.13.25-.29.38-.57.41-5.63.83-11.25,1.67-16.88,2.49-5.98.88-11.95,1.76-17.93,2.62-1.51.21-2.71.88-3.47,2.24-.21.36-.35.78-.51,1.18v1.66c.29,1.18,1.03,2.06,1.88,2.89"/>
</svg>