<?xml version="1.0" encoding="UTF-8"?>
<svg id="Laag_1" data-name="Laag 1" xmlns="http://www.w3.org/2000/svg" xmlns:xlink="http://www.w3.org/1999/xlink" viewBox="0 0 16.08 16.13">
  <defs>
    <style>
      .cls-1 {
        clip-path: url(#clippath);
      }

      .cls-2 {
        fill: none;
      }

      .cls-2, .cls-3 {
        stroke-width: 0px;
      }

      .cls-3 {
        fill: #312783;
      }
    </style>
    <clipPath id="clippath">
      <rect class="cls-2" x="0" y="0" width="16.08" height="16.13"/>
    </clipPath>
  </defs>
  <g class="cls-1">
    <path class="cls-3" d="m14.44,8.07c0-3.5-2.87-6.44-6.38-6.42-3.55.02-6.38,2.75-6.4,6.38-.02,3.62,2.75,6.41,6.39,6.44,3.5.03,6.38-2.89,6.39-6.4m-6.43,8.06C3.62,16.12,0,12.47,0,8.05,0,3.62,3.66-.02,8.1,0c4.39.02,8,3.69,7.98,8.11-.01,4.41-3.66,8.03-8.07,8.02"/>
    <path class="cls-3" d="m8.01,9.92c-.36-.05-.82.16-1.04-.26-.24-.46-.08-.94.16-1.37.24-.43.62-.72,1.05-.95.08-.05.16-.1.25-.15.83-.49,1.03-.84.74-1.3-.31-.49-1.32-.66-1.88-.29-.24.16-.44.37-.63.58-.28.32-.55.33-.9.09-1.07-.72-1.11-1.01-.17-1.91,1.52-1.47,4.08-1.29,5.39.37.86,1.09.66,2.62-.45,3.45-.26.19-.54.36-.81.53-.18.12-.4.24-.43.44-.1.82-.67.8-1.28.76"/>
    <path class="cls-3" d="m8.06,13.07c-.76.01-1.39-.6-1.41-1.36-.01-.76.6-1.39,1.36-1.4.76-.01,1.39.6,1.41,1.36.01.76-.6,1.39-1.36,1.4"/>
  </g>
</svg>