<?xml version="1.0" encoding="utf-8"?>
<!-- Generator: Adobe Illustrator 26.4.0, SVG Export Plug-In . SVG Version: 6.00 Build 0)  -->
<svg version="1.1" id="Laag_1" xmlns="http://www.w3.org/2000/svg" xmlns:xlink="http://www.w3.org/1999/xlink" x="0px" y="0px"
	 viewBox="0 0 283.46 283.46" style="enable-background:new 0 0 283.46 283.46;" xml:space="preserve">
<style type="text/css">
	.st0{fill:#FFFFFF;}
</style>
<path class="st0" d="M129.41,102.67v-0.01c-17.98,0-35.96,0-53.95,0c-1.09,0-1.09,0.01-0.89,1.06c0.95,5.05,1.91,10.09,2.85,15.14
	c1.9,10.18,3.81,20.37,5.69,30.56c0.15,0.8,0.4,1.16,1.33,1.16c28.91-0.02,57.81-0.02,86.71,0c0.79,0,1.11-0.27,1.3-1.01
	c3.86-15.2,7.75-30.4,11.63-45.6c0.29-1.15,0.28-1.16-0.93-1.17c-13.2-0.06-26.4,0.08-39.61-0.11
	C138.84,102.61,134.12,102.67,129.41,102.67 M59.29,90c14.33,0,28.67-0.08,43,0.04c15.06,0.11,30.12,0.04,45.18,0.07
	c12.96,0.03,25.93,0,38.89,0.04c0.98,0.01,1.36-0.3,1.6-1.23c1.36-5.49,2.79-10.96,4.17-16.44c0.17-0.72,0.48-0.99,1.24-0.99
	c9.95,0.02,19.9,0.02,29.85,0c0.8,0,1.06,0.25,1.04,1.05c-0.03,3.47-0.01,6.94-0.01,10.41c0,1.2-0.02,1.22-1.22,1.22
	c-6.51,0.01-13.02,0.02-19.53-0.02c-1.02-0.01-1.41,0.31-1.66,1.29c-4.75,18.74-9.54,37.48-14.31,56.21
	c-1.73,6.77-3.49,13.54-5.19,20.32c-0.22,0.87-0.59,1.15-1.48,1.15c-35.6-0.02-71.2-0.02-106.81,0c-1,0-1.28-0.37-1.45-1.25
	c-1.82-9.83-3.66-19.66-5.5-29.49c-2.05-10.93-4.1-21.86-6.15-32.79c-0.54-2.84-0.98-5.69-1.65-8.5V90z"/>
<path class="st0" d="M90.04,195.7c4.05,0.02,7.33-3.15,7.37-7.12c0.03-4.15-3.13-7.41-7.23-7.44c-4.08-0.03-7.41,3.17-7.44,7.16
	C82.71,192.4,85.95,195.68,90.04,195.7 M164.96,181.13c-4.05-0.01-7.35,3.19-7.37,7.12c-0.02,4.2,3.17,7.44,7.33,7.44
	c4.02,0,7.33-3.23,7.34-7.17C172.27,184.41,169.05,181.15,164.96,181.13 M127.5,168.45c12.5,0,25.01-0.03,37.52,0.01
	c9.27,0.03,17.17,6.38,19.3,15.4c2.72,11.52-5.1,22.82-16.85,24.35c-10.96,1.42-20.98-6.34-22.38-17.35c-0.38-3-0.07-5.95,0.93-8.81
	c0.26-0.75,0.11-0.93-0.67-0.93c-11.9,0.02-23.8,0.02-35.7,0c-0.81-0.01-0.88,0.21-0.65,0.93c3.32,10.22-1.65,20.9-11.55,24.92
	c-11.9,4.83-25.37-3.04-27.13-15.78c-1.59-11.45,6.67-21.56,18-22.68c0.81-0.08,1.64-0.05,2.46-0.05
	C103.03,168.45,115.26,168.45,127.5,168.45"/>
</svg>
